<svg width="122" height="14" viewBox="0 0 122 14" fill="none" xmlns="http://www.w3.org/2000/svg">
<path d="M0.259766 0.399949H3.82377V10.174H9.83577V13H0.259766V0.399949Z" fill="white"/>
<path d="M17.4067 13.252C16.0747 13.252 14.8747 12.97 13.8067 12.406C12.7507 11.842 11.9167 11.062 11.3047 10.066C10.7047 9.06995 10.4047 7.94795 10.4047 6.69995C10.4047 5.45195 10.7047 4.32995 11.3047 3.33395C11.9167 2.33795 12.7507 1.55795 13.8067 0.993949C14.8747 0.429949 16.0747 0.147949 17.4067 0.147949C18.7387 0.147949 19.9327 0.429949 20.9887 0.993949C22.0567 1.55795 22.8907 2.33795 23.4907 3.33395C24.1027 4.32995 24.4087 5.45195 24.4087 6.69995C24.4087 7.94795 24.1027 9.06995 23.4907 10.066C22.8907 11.062 22.0567 11.842 20.9887 12.406C19.9327 12.97 18.7387 13.252 17.4067 13.252ZM17.4067 10.2999C18.0427 10.2999 18.6187 10.1499 19.1347 9.84995C19.6507 9.54995 20.0587 9.12995 20.3587 8.58995C20.6587 8.03795 20.8087 7.40795 20.8087 6.69995C20.8087 5.99195 20.6587 5.36795 20.3587 4.82795C20.0587 4.27595 19.6507 3.84995 19.1347 3.54995C18.6187 3.24995 18.0427 3.09995 17.4067 3.09995C16.7707 3.09995 16.1947 3.24995 15.6787 3.54995C15.1627 3.84995 14.7547 4.27595 14.4547 4.82795C14.1547 5.36795 14.0047 5.99195 14.0047 6.69995C14.0047 7.40795 14.1547 8.03795 14.4547 8.58995C14.7547 9.12995 15.1627 9.54995 15.6787 9.84995C16.1947 10.1499 16.7707 10.2999 17.4067 10.2999Z" fill="white"/>
<path d="M37.6514 13L37.6154 6.32195L34.3754 11.7579H32.7914L29.5694 6.50195V13H26.2754V0.399949H29.2094L33.6374 7.67195L37.9574 0.399949H40.8914L40.9274 13H37.6514Z" fill="white"/>
<path d="M53.1332 6.42995C53.8532 6.68195 54.4172 7.07795 54.8252 7.61795C55.2332 8.14595 55.4372 8.78795 55.4372 9.54395C55.4372 10.6479 54.9932 11.5 54.1052 12.1C53.2172 12.7 51.9332 13 50.2532 13H43.4492V0.399949H49.8932C51.5012 0.399949 52.7252 0.699949 53.5652 1.29995C54.4052 1.88795 54.8252 2.68595 54.8252 3.69395C54.8252 4.29395 54.6752 4.83395 54.3752 5.31395C54.0872 5.78195 53.6732 6.15395 53.1332 6.42995ZM46.9772 2.97395V5.40395H49.4252C50.6252 5.40395 51.2252 4.99595 51.2252 4.17995C51.2252 3.37595 50.6252 2.97395 49.4252 2.97395H46.9772ZM49.9652 10.4259C51.2132 10.4259 51.8372 9.99995 51.8372 9.14795C51.8372 8.29595 51.2132 7.86995 49.9652 7.86995H46.9772V10.4259H49.9652Z" fill="white"/>
<path d="M65.7252 10.552H60.3972L59.4072 13H55.7712L61.3332 0.399949H64.8432L70.4232 13H66.7152L65.7252 10.552ZM64.6812 7.92395L63.0612 3.89195L61.4412 7.92395H64.6812Z" fill="white"/>
<path d="M76.9416 9.65195H74.9976V13H71.4336V0.399949H77.1936C78.3336 0.399949 79.3236 0.591949 80.1636 0.975949C81.0036 1.34795 81.6516 1.88795 82.1076 2.59595C82.5636 3.29195 82.7916 4.11395 82.7916 5.06195C82.7916 5.97395 82.5756 6.77195 82.1436 7.45595C81.7236 8.12795 81.1176 8.65595 80.3256 9.03995L83.0436 13H79.2276L76.9416 9.65195ZM79.1916 5.06195C79.1916 4.47395 79.0056 4.01795 78.6336 3.69395C78.2616 3.36995 77.7096 3.20795 76.9776 3.20795H74.9976V6.89795H76.9776C77.7096 6.89795 78.2616 6.74195 78.6336 6.42995C79.0056 6.10595 79.1916 5.64995 79.1916 5.06195Z" fill="white"/>
<path d="M84.7578 0.399949H90.7158C92.0958 0.399949 93.3198 0.657949 94.3878 1.17395C95.4558 1.68995 96.2838 2.42195 96.8718 3.36995C97.4598 4.31795 97.7538 5.42795 97.7538 6.69995C97.7538 7.97195 97.4598 9.08195 96.8718 10.0299C96.2838 10.9779 95.4558 11.71 94.3878 12.226C93.3198 12.742 92.0958 13 90.7158 13H84.7578V0.399949ZM90.5718 10.156C91.6518 10.156 92.5158 9.84995 93.1638 9.23795C93.8238 8.62595 94.1538 7.77995 94.1538 6.69995C94.1538 5.61995 93.8238 4.77395 93.1638 4.16195C92.5158 3.54995 91.6518 3.24395 90.5718 3.24395H88.3218V10.156H90.5718Z" fill="white"/>
<path d="M108.543 10.174V13H98.7331V10.768L103.449 6.35795C103.905 5.92595 104.211 5.55995 104.367 5.25995C104.523 4.94795 104.601 4.63595 104.601 4.32395C104.601 3.91595 104.463 3.59795 104.187 3.36995C103.911 3.14195 103.509 3.02795 102.981 3.02795C102.513 3.02795 102.081 3.13595 101.685 3.35195C101.301 3.55595 100.983 3.85595 100.731 4.25195L98.0851 2.77595C98.5771 1.95995 99.2671 1.31795 100.155 0.84995C101.043 0.381949 102.093 0.147949 103.305 0.147949C104.265 0.147949 105.111 0.303949 105.843 0.61595C106.587 0.927949 107.163 1.37795 107.571 1.96595C107.991 2.54195 108.201 3.21395 108.201 3.98195C108.201 4.66595 108.051 5.31395 107.751 5.92595C107.463 6.52595 106.899 7.20995 106.059 7.97795L103.683 10.174H108.543Z" fill="white"/>
<path d="M121.373 10.5879H119.501V13H116.027V10.5879H109.367V8.26595L115.019 0.399949H118.709L113.579 7.76195H116.135V5.61995H119.501V7.76195H121.373V10.5879Z" fill="white"/>
</svg>
