<svg width="28" height="30" viewBox="0 0 28 30" fill="none" xmlns="http://www.w3.org/2000/svg">
<path fill-rule="evenodd" clip-rule="evenodd" d="M16.493 2.59049C16.5064 2.49778 16.5134 2.40351 16.5134 2.3077C16.5134 1.03332 15.2921 0 13.7853 0C12.2785 0 11.0573 1.03332 11.0573 2.3077C11.0573 2.40351 11.064 2.49777 11.0777 2.59049C6.28482 3.61195 2.73699 7.28237 2.73699 11.6538V17.4521C2.73699 17.6105 2.69833 17.7671 2.62373 17.9124L0.441318 22.1564C-0.342403 23.6803 0.978092 25.3846 2.94315 25.3846H24.6278C26.5925 25.3846 27.913 23.6803 27.1293 22.1564L24.9469 17.9124C24.872 17.7671 24.8336 17.6105 24.8336 17.4521V11.6538C24.8336 7.2823 21.2856 3.61182 16.4929 2.59049H16.493ZM9.92748 27.0165C10.46 26.5658 11.3238 26.5658 11.8563 27.0165C12.1096 27.2308 12.4104 27.4005 12.7413 27.5166C13.0723 27.6325 13.4273 27.6923 13.7854 27.6923C14.1435 27.6923 14.4984 27.6325 14.8294 27.5166C15.1604 27.4007 15.4612 27.2308 15.7145 27.0165C16.247 26.5658 17.1107 26.5658 17.6433 27.0165C18.1761 27.4669 18.1761 28.1976 17.6433 28.6481C17.1366 29.0769 16.5353 29.4166 15.8734 29.6487C15.2112 29.8805 14.5017 30 13.7854 30C13.069 30 12.3595 29.8805 11.6973 29.6487C11.0354 29.4166 10.4341 29.0769 9.92748 28.6481C9.39466 28.1976 9.39466 27.4669 9.92748 27.0165ZM22.1061 11.6538V17.4521C22.1061 17.9273 22.2218 18.3971 22.4459 18.8329L24.6283 23.0768H2.9437L5.1258 18.8329C5.34989 18.3973 5.46559 17.9273 5.46559 17.4521V11.6538C5.46559 7.76652 9.19074 4.61533 13.7861 4.61533C18.3814 4.61533 22.1065 7.76652 22.1065 11.6538H22.1061Z" fill="white"/>
</svg>
