<svg width="21" height="20" viewBox="0 0 21 20" fill="none" xmlns="http://www.w3.org/2000/svg">
<path d="M4.48863 4.5193e-06C4.28554 4.5193e-06 4.09082 0.080633 3.94717 0.224274C3.80371 0.367733 3.72308 0.562458 3.72308 0.765549V1.9241H3.0622C2.25003 1.9241 1.47113 2.24662 0.896915 2.82083C0.322696 3.39505 0 4.17391 0 4.98611V16.938C0 17.75 0.322696 18.5289 0.896915 19.1031C1.47113 19.6773 2.24999 20 3.0622 20H17.6933C18.5055 20 19.2844 19.6773 19.8586 19.1031C20.4328 18.5289 20.7555 17.75 20.7555 16.938V4.98611C20.7555 4.17395 20.4328 3.39505 19.8586 2.82083C19.2844 2.24662 18.5055 1.9241 17.6933 1.9241H17.0324V0.765549C17.0324 0.491977 16.8867 0.239402 16.6498 0.102523C16.4129 -0.0341742 16.1211 -0.0341742 15.8842 0.102523C15.6473 0.239397 15.5015 0.491968 15.5015 0.765549V1.9241H11.1433V0.765549C11.1433 0.491977 10.9973 0.239402 10.7604 0.102523C10.5237 -0.0341742 10.2318 -0.0341742 9.99505 0.102523C9.75815 0.239397 9.6122 0.491968 9.6122 0.765549V1.9241H5.25393V0.765549C5.25393 0.562463 5.1733 0.367738 5.02984 0.224274C4.8862 0.0806376 4.69148 4.5193e-06 4.48856 4.5193e-06H4.48863ZM19.2246 16.9381C19.2246 17.3441 19.0633 17.7336 18.7762 18.0207C18.4889 18.3078 18.0996 18.469 17.6935 18.469H3.06234C2.65616 18.469 2.2669 18.3078 1.97961 18.0207C1.69251 17.7336 1.53125 17.3441 1.53125 16.9381V8.58412H19.2244L19.2246 16.9381ZM9.61249 3.45479V4.61335C9.61249 4.88674 9.75844 5.13949 9.99534 5.27619C10.2321 5.41306 10.524 5.41306 10.7607 5.27619C10.9976 5.13949 11.1436 4.88674 11.1436 4.61335V3.45479H15.5018V4.61335C15.5018 4.88674 15.6476 5.13949 15.8845 5.27619C16.1214 5.41306 16.4132 5.41306 16.6501 5.27619C16.887 5.13949 17.0327 4.88674 17.0327 4.61335V3.45479H17.6936C18.0998 3.45479 18.4891 3.61606 18.7764 3.90333C19.0635 4.19043 19.2247 4.57971 19.2247 4.98588V7.05269H1.53156V4.98588C1.53156 4.5797 1.69282 4.19044 1.97992 3.90333C2.2672 3.61606 2.65648 3.45479 3.06265 3.45479H3.72354V4.61335C3.72354 4.88674 3.86931 5.13949 4.10621 5.27619C4.34312 5.41306 4.63487 5.41306 4.87176 5.27619C5.10867 5.13949 5.25444 4.88674 5.25444 4.61335V3.45479H9.61249Z" fill="#9A9A9A"/>
</svg>
