<svg width="20" height="18" viewBox="0 0 20 18" fill="none" xmlns="http://www.w3.org/2000/svg">
<path d="M17.5529 4.15151C17.6281 3.92727 17.7813 3.73069 17.9901 3.59102C18.1987 3.45114 18.452 3.37541 18.7123 3.37522C18.9082 3.37012 19.1027 3.40582 19.281 3.47919C19.5543 3.59475 19.7721 3.79525 19.8937 4.044C20.0155 4.29256 20.0332 4.57249 19.9434 4.83204L17.4433 12.1445C17.3647 12.374 17.2062 12.5749 16.9915 12.7175C16.7765 12.8603 16.5167 12.9374 16.2497 12.9374H6.87479C6.60907 12.9372 6.35055 12.8607 6.13629 12.7191C5.92224 12.5774 5.76398 12.3781 5.6842 12.1499L2.20918 2.25006H1.24987C0.803233 2.25006 0.390621 2.03563 0.167409 1.68741C-0.055803 1.33938 -0.055803 0.910517 0.167409 0.562524C0.390621 0.214531 0.803283 8.04654e-05 1.24987 8.04654e-05H3.12497C3.39068 0.000472855 3.64921 0.0769815 3.86324 0.218434C4.07751 0.360077 4.23577 0.5594 4.31555 0.787557L7.7904 10.6874H15.3121L17.5529 4.15151ZM9.99993 16.3124C9.99993 15.8647 9.80244 15.4355 9.45084 15.119C9.09924 14.8026 8.62228 14.6248 8.12485 14.6248C7.62764 14.6248 7.1507 14.8026 6.79909 15.119C6.44748 15.4355 6.25 15.8647 6.25 16.3124C6.25 16.7599 6.44749 17.1892 6.79909 17.5056C7.15068 17.8221 7.62765 17.9998 8.12485 17.9998C8.62229 17.9998 9.09923 17.822 9.45084 17.5056C9.80245 17.1892 9.99993 16.7599 9.99993 16.3124ZM15 18V17.9998C15.4972 17.9998 15.9741 17.8221 16.3258 17.5056C16.6774 17.1892 16.8748 16.7599 16.8748 16.3124C16.8748 15.8647 16.6774 15.4355 16.3258 15.119C15.9742 14.8026 15.4972 14.6249 15 14.6249C14.5026 14.6249 14.0256 14.8026 13.674 15.119C13.3224 15.4355 13.1249 15.8647 13.1249 16.3124C13.1249 16.7599 13.3224 17.1892 13.674 17.5056C14.0256 17.8221 14.5026 17.9998 15 17.9998V18ZM10.6249 8.33616C10.8669 8.58021 11.213 8.71989 11.5766 8.71989C11.94 8.71989 12.2862 8.58021 12.5281 8.33616L15.3438 5.48703C15.5265 5.30988 15.6243 5.07504 15.6167 4.83333C15.6089 4.59163 15.4962 4.36249 15.3026 4.19475C15.1088 4.02721 14.8498 3.9348 14.5813 3.93736H12.8124V1.12489C12.8124 0.72291 12.5741 0.351559 12.1874 0.150668C11.8007 -0.0502227 11.3242 -0.0502227 10.9376 0.150668C10.5509 0.351559 10.3126 0.722955 10.3126 1.12489V3.93736H8.54374C8.27802 3.93677 8.02255 4.02917 7.83097 4.19475C7.63936 4.36052 7.52689 4.58672 7.51708 4.82564C7.50727 5.06459 7.60078 5.29785 7.77822 5.47578L10.6249 8.33616Z" fill="white"/>
</svg>
