<svg width="20" height="20" viewBox="0 0 20 20" fill="none" xmlns="http://www.w3.org/2000/svg">
<path d="M13.0981 10.6339L11 9.42279V4.99987C11 4.64261 10.8094 4.31248 10.5001 4.13384C10.1907 3.95521 9.80933 3.95521 9.49994 4.13384C9.19055 4.31248 9.00004 4.64261 9.00004 4.99987V10.0001C8.99988 10.1757 9.04608 10.3481 9.13397 10.5001C9.2217 10.6523 9.34793 10.7786 9.49994 10.8663L12.0982 12.3663C12.3279 12.4991 12.6009 12.5351 12.8574 12.4664C13.1137 12.3979 13.3322 12.2302 13.4648 12.0003C13.5976 11.7705 13.6334 11.4974 13.5646 11.2411C13.4959 10.9848 13.328 10.7665 13.0982 10.6339L13.0981 10.6339ZM10 0C7.34783 0 4.80435 1.05353 2.9289 2.9289C1.05353 4.80427 0 7.34796 0 10C0 12.652 1.05353 15.1956 2.9289 17.0711C4.80427 18.9465 7.34796 20 10 20C12.652 20 15.1956 18.9465 17.0711 17.0711C18.9465 15.1957 20 12.652 20 10C19.9972 7.34869 18.9426 4.80693 17.0678 2.93233C15.1931 1.05747 12.6513 0.00291444 10.0001 8.58319e-05L10 0ZM10 18.0003C7.8782 18.0003 5.84331 17.1573 4.3432 15.657C2.84284 14.1568 1.99991 12.1219 1.99991 10.0002C1.99991 7.87845 2.84284 5.84348 4.3432 4.34338C5.8434 2.84301 7.87828 2.00009 10 2.00009C12.1217 2.00009 14.1567 2.84301 15.6568 4.34338C17.1572 5.84357 18.0001 7.87845 18.0001 10.0002C17.9976 12.1211 17.154 14.1547 15.6541 15.6544C14.1545 17.1542 12.1209 17.9979 9.99991 18.0003L10 18.0003Z" fill="#9A9A9A"/>
</svg>
