<svg width="18" height="20" viewBox="0 0 18 20" fill="none" xmlns="http://www.w3.org/2000/svg">
<path d="M4.96905 2.01241H7.98317C8.22707 2.01241 8.42448 2.21001 8.42448 2.45372C8.42448 2.69742 8.22707 2.89503 7.98317 2.89503H4.96905C4.72535 2.89503 4.52774 2.69742 4.52774 2.45372C4.52774 2.21001 4.72535 2.01241 4.96905 2.01241ZM13.014 4.02468H4.96905C4.72535 4.02468 4.52774 4.22229 4.52774 4.46599C4.52774 4.70989 4.72535 4.9073 4.96905 4.9073H13.014C13.2579 4.9073 13.4553 4.70989 13.4553 4.46599C13.4553 4.22229 13.2579 4.02468 13.014 4.02468ZM13.014 6.03695L4.96905 6.03715C4.72535 6.03715 4.52774 6.23476 4.52774 6.47846C4.52774 6.72216 4.72535 6.91977 4.96905 6.91977H13.014C13.2603 6.91977 13.4598 6.7202 13.4598 6.47393C13.4598 6.22786 13.2603 6.02829 13.014 6.02829V6.03695ZM17.9833 19.5587C17.9833 19.6757 17.9368 19.788 17.854 19.8708C17.7713 19.9535 17.659 20 17.5419 20H0.44131C0.197606 20 0 19.8026 0 19.5587V8.49064C0.00433432 8.36967 0.0512222 8.25402 0.132393 8.16418L2.51547 4.92058V0.44131C2.51547 0.197409 2.71307 0 2.95678 0H15.0265C15.1435 0 15.2558 0.0464954 15.3385 0.129241C15.4213 0.211985 15.4678 0.324285 15.4678 0.44131V4.92058L17.8993 8.23474C17.9374 8.30015 17.9628 8.37187 17.9744 8.44653C18.0142 8.49066 17.9612 19.5015 17.9833 19.5585L17.9833 19.5587ZM17.1006 9.40856L9.80111 14.0423C9.56647 14.192 9.29399 14.2716 9.01563 14.2716C8.73728 14.2716 8.46478 14.192 8.23015 14.0423L0.882217 9.30275V18.4689L3.80374 15.543V15.5428C3.97908 15.3698 4.2616 15.3718 4.43479 15.5474C4.60776 15.7229 4.60579 16.0054 4.43025 16.1784L1.49123 19.1174H16.5533L13.6054 16.1784C13.5218 16.0955 13.4747 15.9828 13.4747 15.8652C13.4747 15.7473 13.5218 15.6347 13.6054 15.5517C13.7776 15.3807 14.0555 15.3807 14.2275 15.5517L17.1004 18.4246L17.1006 9.40856ZM1.93268 8.93199L8.70667 13.301C8.89363 13.4205 9.133 13.4205 9.32016 13.301L16.2177 8.93199H1.93268ZM15.463 6.41218V8.04937H16.6723L15.463 6.41218ZM3.39783 8.04937H14.5849V0.882494H3.39783V8.04937ZM2.51521 6.41218L1.31046 8.04937H2.51521V6.41218Z" fill="black"/>
</svg>
