<svg width="10" height="19" viewBox="0 0 10 19" fill="none" xmlns="http://www.w3.org/2000/svg">
<path d="M6.84533 18.0684L6.81547 13.2016C6.79828 11.2839 6.77926 9.24955 6.7684 8.30069C6.97025 8.29736 7.20558 8.29569 7.43458 8.29569C7.7025 8.29569 7.96319 8.29736 8.15689 8.29736C8.25284 8.29986 8.33339 8.30069 8.3886 8.30152C8.44382 8.30236 8.47459 8.30236 8.47459 8.30236C8.57325 8.30402 8.66831 8.26404 8.73891 8.19489C8.80861 8.12325 8.84842 8.02661 8.84933 7.92498L8.85295 5.59907C8.85295 5.49743 8.81403 5.36664 8.74433 5.2975C8.67554 5.22502 8.5814 5.15171 8.48274 5.15171H8.36055C8.28181 5.15171 8.17047 5.18753 8.03651 5.18753C7.62648 5.18753 7.00374 5.20086 6.51224 5.19503C6.52129 4.93511 6.54392 4.71519 6.58104 4.52108C6.61634 4.33198 6.66522 4.17869 6.72405 4.05207C6.7675 3.9571 6.81547 3.88296 6.86797 3.81964C6.94672 3.72634 7.0318 3.66303 7.14133 3.61638C7.25085 3.56972 7.38933 3.54057 7.56584 3.54057C7.87992 3.54057 8.30986 3.63554 8.84933 3.85047L8.86201 3.85297C8.86653 3.8563 8.87014 3.85796 8.87467 3.85796C8.88191 3.8613 8.89006 3.8613 8.89821 3.86296C8.91088 3.86629 8.92264 3.86796 8.93531 3.87046C8.94708 3.87129 8.95886 3.87379 8.97062 3.87379H9.00682C9.0195 3.87129 9.03036 3.87046 9.04212 3.86796C9.05389 3.8663 9.06566 3.86296 9.07652 3.86046C9.08829 3.85796 9.09916 3.85463 9.11002 3.85047C9.12178 3.84547 9.13264 3.8413 9.1426 3.83547C9.15346 3.83047 9.16341 3.82381 9.17337 3.81881C9.18332 3.81215 9.19329 3.80548 9.20325 3.79715L9.22949 3.77549C9.23854 3.76633 9.24759 3.75633 9.25483 3.748C9.26298 3.73884 9.27023 3.72967 9.27747 3.71968C9.28471 3.70885 9.29195 3.69968 9.29828 3.68885C9.30371 3.67886 9.30915 3.66636 9.31458 3.65553C9.3182 3.64887 9.32272 3.6397 9.32543 3.63137C9.32724 3.62804 9.32815 3.62387 9.32906 3.61887C9.32996 3.61554 9.33358 3.61054 9.33448 3.60721C9.4087 3.35479 9.53633 2.93326 9.64585 2.48841C9.70016 2.26515 9.75178 2.03689 9.78889 1.81529C9.826 1.59453 9.85222 1.38293 9.85222 1.18633C9.85131 1.09886 9.84679 1.01555 9.83322 0.929747C9.81149 0.795624 9.72099 0.682327 9.59608 0.634842C8.83667 0.350768 7.83285 0.0691924 6.75573 0.0683594C5.91032 0.0683594 5.01424 0.244969 4.18241 0.74314C3.76333 0.992226 3.43294 1.31046 3.18131 1.66534C2.80296 2.201 2.60111 2.81497 2.48797 3.4406C2.39655 3.94544 2.36125 4.46027 2.34315 4.95761C2.12591 4.96344 1.87972 4.96511 1.65615 4.96511C1.46063 4.96511 1.28051 4.96344 1.15016 4.96261C1.08499 4.96261 1.0325 4.96094 0.996292 4.95927H0.940176C0.841515 4.95761 0.744667 4.99843 0.67497 5.06841C0.604369 5.14005 0.56454 5.23918 0.565445 5.33915L0.579919 7.85167C0.581729 8.0616 0.746464 8.24571 0.950122 8.24571H1.20719C1.56744 8.24571 2.23995 8.22905 2.75679 8.23821C2.83373 9.96515 2.85185 12.551 2.85185 14.5562C2.85185 15.4026 2.84551 16.6721 2.84551 16.6721L2.84278 18.0684H6.84533Z" fill="white"/>
</svg>
