<svg width="43" height="50" viewBox="0 0 43 50" fill="none" xmlns="http://www.w3.org/2000/svg">
<path d="M38.4271 31.6261V13.6741C38.4271 13.0933 38.216 12.7764 37.6352 12.7764H33.7282C33.1474 12.7764 32.6194 13.0933 32.6194 13.6741V29.8308L30.5076 30.0947V18.9542C30.5076 18.3735 30.2965 18.0566 29.7157 18.0566H25.8083C25.2276 18.0566 24.6995 18.3735 24.6995 18.9542V34.1075C23.5398 35.8263 22.8985 37.8425 22.8516 39.9152C22.8656 42.5948 23.9397 45.1596 25.8394 47.0494C27.739 48.9392 30.3095 50 32.989 50C35.6448 49.986 38.1857 48.914 40.0485 47.0213C41.9116 45.1286 42.9435 42.571 42.9153 39.9153C42.8731 36.5825 41.1951 33.4832 38.4271 31.6258L38.4271 31.6261ZM34.7312 14.8891H36.3153V30.5173C35.8043 30.2943 35.274 30.1174 34.7312 29.9893V14.8891ZM26.8116 20.1688H28.3958L28.3954 30.8344C27.8201 31.1314 27.2874 31.5043 26.8116 31.9431L26.8116 20.1688ZM32.9889 47.8883C30.8746 47.8883 28.8465 47.0484 27.3515 45.5534C25.8561 44.058 25.0163 42.0304 25.0163 39.9156C25.0066 38.3416 25.4693 36.8008 26.3446 35.4924C27.2202 34.1841 28.4679 33.1684 29.9265 32.5764L30.2434 32.418V32.4184C31.1222 32.0942 32.0523 31.9333 32.989 31.943C35.8374 31.943 38.4693 33.4625 39.8936 35.9295C41.3179 38.3961 41.3179 41.4352 39.8936 43.9021C38.4694 46.3687 35.8375 47.8883 32.989 47.8883L32.9889 47.8883Z" fill="black"/>
<path d="M36.8422 39.1769C36.8422 38.8968 36.7311 38.6283 36.5329 38.4301C36.3348 38.2324 36.0662 38.1208 35.7861 38.1208H30.6645C30.815 37.8137 31.0312 37.543 31.2983 37.3289C31.8007 36.8121 32.445 36.4562 33.1499 36.3057C33.8548 36.1556 34.5885 36.2177 35.258 36.4844C35.5168 36.5847 35.8052 36.5735 36.0553 36.4533C36.3055 36.3335 36.4946 36.1152 36.578 35.8506C36.7956 35.3114 36.5361 34.6975 35.9972 34.478C34.948 34.0915 33.8111 34.0103 32.7175 34.2438C31.6242 34.4777 30.6194 35.0165 29.8199 35.7979C29.1623 36.4443 28.6729 37.242 28.3942 38.1209C27.811 38.1209 27.3381 38.5937 27.3381 39.177C27.3277 39.6581 27.6597 40.079 28.1304 40.1804C28.1188 40.3753 28.1365 40.5713 28.1831 40.7611C27.6835 40.8629 27.328 41.3072 27.3381 41.8168C27.3381 42.0969 27.4497 42.3658 27.6475 42.5636C27.8456 42.7618 28.1141 42.8729 28.3942 42.8729H28.9222C29.1572 43.3057 29.4604 43.698 29.8199 44.0344C30.6161 44.8216 31.6209 45.3641 32.7156 45.5979C33.8104 45.8318 34.9491 45.7474 35.9972 45.3547C36.5361 45.1349 36.7956 44.5213 36.578 43.9817C36.4946 43.7172 36.3055 43.4988 36.0554 43.379C35.8052 43.2588 35.5169 43.2476 35.2581 43.3483C34.058 43.8067 32.7074 43.628 31.6679 42.873H35.2581C35.8413 42.873 36.3142 42.4001 36.3142 41.8168C36.3142 41.2339 35.8414 40.7611 35.2581 40.7611H30.2949C30.2949 40.6027 30.2422 40.3915 30.2422 40.2331H35.7861C36.0662 40.2331 36.3347 40.1219 36.5329 39.9237C36.731 39.7256 36.8422 39.4571 36.8422 39.177L36.8422 39.1769Z" fill="black"/>
<path d="M13.6124 25.9769H9.91646C9.3332 25.9769 8.86035 26.4497 8.86035 27.0326V43.4C8.86035 43.6801 8.97188 43.9487 9.16967 44.1468C9.36782 44.3446 9.63636 44.4561 9.91644 44.4561H13.6124C13.8924 44.4561 14.161 44.3446 14.3591 44.1468C14.5573 43.9487 14.6685 43.6801 14.6685 43.4V27.0326C14.6685 26.7525 14.5573 26.484 14.3591 26.2862C14.161 26.0881 13.8924 25.9769 13.6124 25.9769L13.6124 25.9769ZM12.5563 42.3443H10.9725V28.0882H12.5567L12.5563 42.3443Z" fill="black"/>
<path d="M21.5313 23.8646H17.8354C17.2521 23.8646 16.7793 24.3374 16.7793 24.9207V43.4004C16.7793 43.6805 16.8908 43.949 17.0886 44.1472C17.2868 44.3449 17.5553 44.4565 17.8354 44.4565H21.5313C21.8114 44.4565 22.0799 44.3449 22.2781 44.1472C22.4759 43.949 22.5874 43.6805 22.5874 43.4004V24.9207C22.5874 24.6407 22.4759 24.3721 22.2781 24.174C22.0799 23.9762 21.8114 23.8647 21.5313 23.8647L21.5313 23.8646ZM20.4752 41.8167H18.8914V25.9768H20.4756L20.4752 41.8167Z" fill="black"/>
<path d="M5.69113 34.9525H1.9952C1.41193 34.9525 0.939453 35.4253 0.939453 36.0086V43.4004C0.939453 43.6805 1.05062 43.949 1.24841 44.1472C1.44656 44.345 1.7151 44.4565 1.99518 44.4565H5.69111C5.97119 44.4565 6.23972 44.345 6.43787 44.1472C6.63602 43.949 6.74719 43.6805 6.74719 43.4004V36.0086C6.74719 35.7285 6.63603 35.46 6.43787 35.2618C6.23972 35.064 5.97119 34.9525 5.69111 34.9525L5.69113 34.9525ZM4.63538 42.3443H3.05122V37.0646H4.63538V42.3443Z" fill="black"/>
<path d="M1.78496 29.9371L20.5289 11.2458L24.3306 15.0475H24.3302C24.5205 15.2544 24.7883 15.3724 25.0694 15.3724C25.3506 15.3724 25.6188 15.2544 25.8086 15.0475L37.424 3.43215V7.91994C37.4215 8.52233 37.8799 9.02687 38.4801 9.08138C39.08 9.02688 39.5383 8.5223 39.5359 7.91994V0.950335C39.5283 0.703095 39.4124 0.471379 39.2193 0.316898C39.0136 0.145453 38.7451 0.0689384 38.4801 0.10575L31.5633 0C30.9511 0 30.4545 0.496641 30.4545 1.10878C30.4545 1.72128 30.9511 2.21756 31.5633 2.21756L35.9457 2.05911L25.0695 12.8826L21.2678 9.02825H21.2682C20.8574 8.62581 20.2001 8.62581 19.7898 9.02825L0.306702 28.4587C-0.102234 28.8871 -0.102234 29.5614 0.306702 29.9897C0.518932 30.1539 0.777721 30.2463 1.04589 30.2539C1.32706 30.263 1.59776 30.1467 1.78507 29.937L1.78496 29.9371Z" fill="black"/>
</svg>
