<svg width="19" height="19" viewBox="0 0 19 19" fill="none" xmlns="http://www.w3.org/2000/svg">
<path fill-rule="evenodd" clip-rule="evenodd" d="M12.5654 1.76836H6.56543C4.19061 1.76836 2.26543 3.69353 2.26543 6.06836V12.0684C2.26543 14.4432 4.19061 16.3684 6.56543 16.3684H12.5654C14.9403 16.3684 16.8654 14.4432 16.8654 12.0684V6.06836C16.8654 3.69354 14.9403 1.76836 12.5654 1.76836ZM6.56543 0.0683594C3.25172 0.0683594 0.56543 2.75465 0.56543 6.06836V12.0684C0.56543 15.3821 3.25172 18.0684 6.56543 18.0684H12.5654C15.8791 18.0684 18.5654 15.3821 18.5654 12.0684V6.06836C18.5654 2.75465 15.8791 0.0683594 12.5654 0.0683594H6.56543Z" fill="white"/>
<path d="M9.56543 4.56836C7.09043 4.56836 5.06543 6.59336 5.06543 9.06836C5.06543 11.5434 7.09043 13.5684 9.56543 13.5684C12.0404 13.5684 14.0654 11.5434 14.0654 9.06836C14.0654 6.59336 12.0404 4.56836 9.56543 4.56836ZM9.56543 12.0684C7.91543 12.0684 6.56543 10.7184 6.56543 9.06836C6.56543 7.41836 7.91543 6.06836 9.56543 6.06836C11.2154 6.06836 12.5654 7.41836 12.5654 9.06836C12.5654 10.7184 11.2154 12.0684 9.56543 12.0684Z" fill="white"/>
<path d="M14.1475 5.69336C14.7688 5.69336 15.2725 5.18968 15.2725 4.56836C15.2725 3.94704 14.7688 3.44336 14.1475 3.44336C13.5261 3.44336 13.0225 3.94704 13.0225 4.56836C13.0225 5.18968 13.5261 5.69336 14.1475 5.69336Z" fill="white"/>
</svg>
