<svg width="12" height="16" viewBox="0 0 12 16" fill="none" xmlns="http://www.w3.org/2000/svg">
<path fill-rule="evenodd" clip-rule="evenodd" d="M5.53843 0C8.59501 0 11.0769 2.48185 11.0769 5.53843C11.0769 7.09967 10.2664 9.08549 9.26768 10.8965C7.82399 13.5131 6.01906 15.7692 6.01906 15.7692C5.90217 15.9151 5.72552 16 5.53843 16C5.35135 16 5.17469 15.9151 5.0578 15.7692C5.0578 15.7692 3.25287 13.5132 1.80919 10.8965C0.81044 9.08549 0 7.09974 0 5.53843C0 2.48185 2.48185 0 5.53843 0ZM5.53843 2.46152C3.83994 2.46152 2.46152 3.83994 2.46152 5.53843C2.46152 7.23692 3.83994 8.61534 5.53843 8.61534C7.23692 8.61534 8.61534 7.23692 8.61534 5.53843C8.61534 3.83994 7.23692 2.46152 5.53843 2.46152ZM5.53843 3.69229C6.5575 3.69229 7.38457 4.51936 7.38457 5.53843C7.38457 6.5575 6.5575 7.38457 5.53843 7.38457C4.51936 7.38457 3.69229 6.5575 3.69229 5.53843C3.69229 4.51936 4.51936 3.69229 5.53843 3.69229Z" fill="#9573DC"/>
</svg>
