<svg width="21" height="20" viewBox="0 0 21 20" fill="none" xmlns="http://www.w3.org/2000/svg">
<path d="M20.3076 3V17C20.3076 17.7958 19.9915 18.5587 19.429 19.1214C18.8663 19.6839 18.1034 20 17.3076 20H5.30761C4.51184 20 3.74892 19.6839 3.18618 19.1214C2.62368 18.5587 2.30761 17.7958 2.30761 17V14C2.30761 13.6426 2.49823 13.3125 2.80761 13.1339C3.11699 12.9554 3.49824 12.9554 3.80761 13.1339C4.11698 13.3125 4.30761 13.6426 4.30761 14V17C4.30761 17.2652 4.41297 17.5196 4.60047 17.7071C4.78796 17.8946 5.04243 18 5.30761 18H17.3076C17.5728 18 17.8273 17.8946 18.0147 17.7071C18.2022 17.5196 18.3076 17.2652 18.3076 17V3C18.3076 2.73482 18.2022 2.48035 18.0147 2.29286C17.8273 2.10536 17.5728 2 17.3076 2H5.30761C5.04243 2 4.78796 2.10536 4.60047 2.29286C4.41297 2.48035 4.30761 2.73482 4.30761 3V6C4.30761 6.35737 4.11699 6.68749 3.80761 6.86606C3.49823 7.04463 3.11698 7.04463 2.80761 6.86606C2.49824 6.68749 2.30761 6.35735 2.30761 6V3C2.30761 2.20423 2.62368 1.44131 3.18618 0.878571C3.74891 0.316069 4.51184 0 5.30761 0H17.3076C18.1034 0 18.8663 0.316069 19.429 0.878571C19.9915 1.4413 20.3076 2.20423 20.3076 3ZM8.59732 13.2897C8.40804 13.4774 8.30156 13.733 8.30156 13.9998C8.30156 14.2665 8.40804 14.5221 8.59732 14.7098C8.78505 14.8991 9.04063 15.0056 9.30738 15.0056C9.57413 15.0056 9.8297 14.8991 10.0174 14.7098L14.0174 10.7098C14.2067 10.5221 14.3132 10.2665 14.3132 9.99977C14.3132 9.73302 14.2067 9.47745 14.0174 9.28971L10.0174 5.28971C9.76364 5.03614 9.39401 4.93703 9.04755 5.02989C8.7009 5.12275 8.43035 5.39329 8.33749 5.73995C8.24464 6.08638 8.34374 6.45601 8.59732 6.70983L10.8973 8.99978H1.3076C0.950237 8.99978 0.620117 9.1904 0.441546 9.49978C0.262974 9.80915 0.262974 10.1904 0.441546 10.4998C0.620117 10.8091 0.950248 10.9998 1.3076 10.9998H10.8973L8.59732 13.2897Z" fill="black"/>
</svg>
