<svg width="20" height="20" viewBox="0 0 20 20" fill="none" xmlns="http://www.w3.org/2000/svg">
<path d="M1.86874 16.0789L6.97397 14.9736C7.12009 14.9351 7.25519 14.8629 7.36863 14.7631L15.9475 6.15787C16.6322 5.48513 17.0179 4.56526 17.0179 3.60545C17.0179 2.6454 16.6322 1.72557 15.9475 1.05283C15.2733 0.372011 14.3529 -0.00759162 13.3949 0.000115097C12.4448 -0.00649294 11.5328 0.373482 10.8685 1.05283L2.2633 9.65804C2.1539 9.76469 2.08029 9.90254 2.05275 10.0529L0.921087 15.1318C0.866016 15.402 0.95578 15.6812 1.15789 15.8686C1.29813 16.0256 1.50042 16.1122 1.71061 16.1056L1.86874 16.0789ZM3.28987 11.7894L5.21087 13.7368L2.73715 14.2895L3.28987 11.7894ZM13.9214 5.97364L6.78985 13.0789L3.9215 10.2105L11.053 3.10529L13.9214 5.97364ZM14.8425 2.18415C15.1843 2.53292 15.3906 2.99199 15.4244 3.4792C15.4582 3.96637 15.3172 4.4495 15.0267 4.84198L12.1846 2.00003C12.531 1.73056 12.9565 1.58261 13.3952 1.57894C13.9398 1.57508 14.4626 1.79371 14.8426 2.18415L14.8425 2.18415Z" fill="#9A9A9A"/>
<path d="M18.4213 18.421H0.789814C0.578349 18.4137 0.373125 18.4944 0.223512 18.644C0.073724 18.7938 -0.00704111 18.9988 0.000482329 19.2105C0.000482329 19.42 0.0836349 19.6208 0.23159 19.7687C0.379723 19.9169 0.580544 20 0.789809 20H18.4213C18.6305 20 18.8313 19.9169 18.9795 19.7687C19.1274 19.6208 19.2106 19.42 19.2106 19.2105C19.2181 18.9989 19.1374 18.7938 18.9876 18.644C18.838 18.4944 18.6327 18.4137 18.4213 18.421H18.4213Z" fill="#9A9A9A"/>
</svg>
