<svg width="17" height="18" viewBox="0 0 17 18" fill="none" xmlns="http://www.w3.org/2000/svg">
<path d="M16.1682 11.4616L14.6957 9.98917C13.6918 8.98524 12.0186 8.98524 11.0146 9.98917C10.6131 10.3907 10.0107 10.4577 9.47527 10.123C8.4044 9.38681 7.46739 8.51673 6.7981 7.44587C6.46346 6.97736 6.53039 6.30807 6.93196 5.9065C7.9359 4.90256 7.86897 3.22933 6.93196 2.29232L5.52645 0.752953C4.52251 -0.250984 2.84928 -0.250984 1.84535 0.752953L1.44377 1.22146C0.239048 2.42618 -0.229456 4.23327 0.10519 6.24114C0.506765 8.51673 1.84535 10.7923 3.98708 13.001C6.59732 15.6112 9.40834 17.0167 11.9516 17.0167C12.0186 17.0167 12.0855 17.0167 12.1524 17.0167C13.491 17.0167 14.8296 16.4813 15.7666 15.5443L16.1682 15.1427C17.239 14.1388 17.239 12.4656 16.1682 11.4616ZM10.7469 15.0758C9.47527 14.8081 7.53432 14.0049 5.25873 11.7293C1.44377 7.84744 1.0422 4.16634 2.71543 2.49311L3.117 2.09154C3.31779 1.89075 3.51858 1.82382 3.65243 1.82382C3.85322 1.82382 4.05401 1.89075 4.18787 2.02461L5.66031 3.49705C5.99495 3.83169 5.99495 4.3002 5.72724 4.56791C4.7233 5.63878 4.52251 7.24508 5.32566 8.4498C6.19574 9.72146 7.26661 10.7923 8.53826 11.6624C9.74299 12.4656 11.3493 12.2648 12.3532 11.2608C12.6209 10.9931 13.1564 10.9931 13.4241 11.2608L14.8965 12.7333C15.0304 12.8671 15.0973 13.0679 15.0973 13.2687C15.0973 13.4695 15.0304 13.6703 14.8965 13.8041L14.495 14.2057C13.6249 15.0758 12.2863 15.3435 10.7469 15.0758Z" fill="white"/>
</svg>
