<svg width="30" height="30" viewBox="0 0 30 30" fill="none" xmlns="http://www.w3.org/2000/svg">
<path d="M2.00251 7.50601C0.831422 8.72399 0.136902 10.3224 0.0459691 12.0098C-0.289355 15.5728 1.22192 19.516 4.18444 22.8988C7.06163 26.1765 10.5795 28.5236 14.0927 29.4946C15.2106 29.8174 16.3671 29.9858 17.5306 29.995C19.4295 30.0633 21.2871 29.4311 22.7499 28.2185C23.3698 27.7344 23.8296 27.0752 24.0695 26.3266C24.3096 25.5777 24.3188 24.7741 24.0961 24.02C23.7757 23.0191 22.3596 22.5187 21.5489 22.3036C18.5814 21.5579 17.9959 21.3927 16.5947 21.0025C15.619 20.7223 15.0385 21.618 14.6581 22.2135C14.4879 22.4787 14.1278 23.0393 13.9526 23.0942C12.9017 22.814 11.6056 21.9032 10.2495 20.517H28.0243C28.2897 20.517 28.5444 20.4116 28.732 20.2239C28.9197 20.0363 29.0251 19.7816 29.0251 19.5162V1.00083C29.0227 0.912364 29.0077 0.824794 28.98 0.74057C28.9498 0.650987 28.9061 0.566539 28.85 0.490362C28.7966 0.415969 28.7305 0.351629 28.6547 0.300249C28.5761 0.246634 28.4903 0.20441 28.3996 0.175146H28.3645C28.262 0.097847 28.1469 0.0386493 28.0243 0H3.00351C2.90677 0.00201059 2.81094 0.0172018 2.71822 0.0451267H2.67824C2.58888 0.0734982 2.50443 0.115722 2.42803 0.170231C2.3523 0.221613 2.28617 0.28595 2.23277 0.360343H2.20775C2.1519 0.43652 2.10789 0.520968 2.07774 0.610551C2.02993 0.735209 2.00446 0.867238 2.00267 1.00083L2.00251 7.50601ZM16.3441 23.294C16.3893 23.2189 16.4442 23.1338 16.4992 23.0538C17.6352 23.369 18.4008 23.5542 21.063 24.2448H21.0633C21.4736 24.3281 21.8646 24.4894 22.2142 24.7202C22.2788 25.0937 22.2399 25.4779 22.1014 25.8309C21.9629 26.1839 21.7301 26.492 21.4285 26.7218C19.9272 28.048 17.4252 28.3582 14.6331 27.5725C11.4854 26.6919 8.30787 24.57 5.68569 21.5973C3.0634 18.6249 1.75723 15.2223 2.03757 12.2095C2.17764 10.7082 2.75314 9.4322 3.61877 8.76153C3.94091 8.51288 4.31581 8.34176 4.71477 8.26111L5.09008 8.18605C5.38542 8.12595 5.68051 8.06586 5.88583 8.03592C5.91085 8.10607 5.93587 8.20616 5.97094 8.33617C6.00602 8.46619 6.85671 11.8391 7.32207 13.7108C6.1961 14.5114 4.45963 15.7975 5.21026 17.2137H5.21003C5.25091 17.2945 5.29582 17.373 5.34519 17.4489C5.91419 18.3995 6.55133 19.3078 7.25192 20.1661C8.75317 22.0476 11.0701 24.4197 13.4422 25.0452C14.9734 25.4254 15.8641 24.0193 16.3444 23.2937L16.3441 23.294ZM8.50792 18.515C8.35779 18.3149 8.21258 18.1248 8.08256 17.9445L8.0075 17.8544L7.66726 17.354L7.60717 17.2589L7.33685 16.8536L7.30178 16.7935C7.2218 16.6684 7.14674 16.5534 7.09156 16.4582L7.09178 16.4584C7.53188 15.9958 8.02581 15.5876 8.56289 15.2422C9.0633 14.8819 9.59878 14.5117 9.40353 13.831C9.13321 12.7401 7.95724 8.02616 7.90228 7.78596C7.36679 5.74924 6.40103 5.8444 4.68955 6.19469L4.31424 6.26975C4.20925 6.26975 4.10916 6.31488 4.00394 6.34482L4.00416 3.08205L14.8932 11.644C15.0699 11.7836 15.2886 11.8596 15.5138 11.8596C15.7391 11.8596 15.9577 11.7836 16.1345 11.644L27.0235 3.08205V18.5149L8.50792 18.515ZM25.132 2.00132L15.5137 9.58762L5.89546 2.00132H25.132Z" fill="white"/>
</svg>
