<svg width="28" height="26" viewBox="0 0 28 26" fill="none" xmlns="http://www.w3.org/2000/svg">
<path d="M27.2021 4.418C26.6867 3.88435 26.0028 3.59187 25.2743 3.59187H12.8156L10.9373 0.482337C10.754 0.179593 10.4418 0 10.0949 0H2.72566C1.99717 0 1.31327 0.292481 0.797876 0.82613C0.282478 1.35978 0 2.06789 0 2.82218V19.4371C0 20.1914 0.282478 20.8995 0.797876 21.4332C1.31327 21.9617 1.99717 22.2593 2.72566 22.2593H5.45628V22.8853C5.45628 23.7166 5.7685 24.4965 6.33345 25.0866C6.89841 25.6767 7.65664 26 8.45947 26H19.5455C20.3483 26 21.1016 25.6767 21.6715 25.0866C22.2365 24.4965 22.5487 23.7166 22.5487 22.8853V22.2542H25.2743C26.0028 22.2542 26.6867 21.9617 27.2021 21.4281C27.7175 20.8944 28 20.1863 28 19.432V6.41405C28 5.65976 27.7175 4.95165 27.2021 4.418ZM21.6616 14.4496C21.0966 13.8646 20.3434 13.5362 19.5405 13.5362H18.0588C18.0538 13.5362 18.0439 13.5311 18.0439 13.5208L17.925 13.018C17.925 13.018 17.925 13.018 17.925 13.0128C17.8159 12.5664 17.5681 12.1662 17.2163 11.884C16.8644 11.6017 16.4283 11.4478 15.9873 11.4478C15.9873 11.4478 15.9873 11.4478 15.9823 11.4478H12.0177C12.0177 11.4478 12.0177 11.4478 12.0127 11.4478C11.5717 11.4478 11.1306 11.6017 10.7837 11.884C10.4319 12.1662 10.1791 12.5715 10.075 13.018V13.0231L9.97593 13.526C9.97593 13.5311 9.97097 13.5362 9.96106 13.5362H8.45451C7.65168 13.5362 6.89841 13.8595 6.33345 14.4496C5.7685 15.0345 5.45133 15.8145 5.45133 16.6457V20.2017H2.72566C2.53239 20.2017 2.33912 20.1196 2.20035 19.9759C2.06159 19.8322 1.9823 19.6373 1.9823 19.432V2.82218C1.9823 2.61693 2.06159 2.42195 2.20035 2.27827C2.33912 2.1346 2.52743 2.0525 2.72566 2.0525H9.54973L11.423 5.1569C11.423 5.1569 11.423 5.16203 11.428 5.16203C11.6113 5.46477 11.9235 5.64437 12.2704 5.64437H25.2743C25.4726 5.64437 25.6609 5.72647 25.7996 5.87014C25.9384 6.01381 26.0177 6.2088 26.0177 6.41405V19.4371C26.0177 19.6424 25.9384 19.8374 25.7996 19.9811C25.6609 20.1247 25.4676 20.2068 25.2743 20.2068H22.5437V16.6509C22.5437 15.8145 22.2315 15.0345 21.6616 14.4496ZM7.43858 16.6457C7.43858 16.3687 7.54761 16.0967 7.73593 15.8966C7.9292 15.6965 8.1869 15.5887 8.45947 15.5887H9.94124C10.3873 15.5887 10.8234 15.4348 11.1703 15.1474C11.5172 14.8652 11.7699 14.465 11.8789 14.0186L11.9979 13.5157C11.9979 13.5054 12.0078 13.5003 12.0177 13.5003H15.9823C15.9922 13.5003 15.9972 13.5054 16.0021 13.5157L16.1211 14.0186C16.2301 14.465 16.4779 14.8652 16.8297 15.1474C17.1766 15.4296 17.6177 15.5887 18.0588 15.5887H19.5405C19.8131 15.5887 20.0708 15.6965 20.2641 15.8966C20.4524 16.0916 20.5614 16.3635 20.5614 16.6457V22.8853C20.5614 23.1624 20.4524 23.4395 20.2641 23.6345C20.0708 23.8346 19.8131 23.9475 19.5405 23.9475H8.45947C8.1869 23.9475 7.9292 23.8346 7.73593 23.6345C7.54266 23.4344 7.43858 23.1676 7.43858 22.8853V16.6457Z" fill="#4CC35D"/>
<path d="M14.0005 23.0239C14.9916 23.0239 15.9481 22.6134 16.6468 21.8899C17.3505 21.1613 17.742 20.1761 17.742 19.1498C17.742 18.1236 17.3456 17.1333 16.6419 16.4098C15.9381 15.6811 14.9866 15.2758 13.9955 15.2706C13.0043 15.2706 12.0479 15.6811 11.3491 16.4046C10.6454 17.1333 10.2539 18.1185 10.2539 19.1498C10.2539 20.1761 10.6504 21.1664 11.3491 21.8899C12.0528 22.6186 13.0093 23.0239 14.0005 23.0239ZM12.37 17.4565C12.8012 17.0101 13.3909 16.7587 14.0005 16.7587C14.61 16.7587 15.1997 17.0101 15.6309 17.4565C16.062 17.903 16.3049 18.5136 16.3049 19.1447C16.3049 19.7759 16.062 20.3865 15.6259 20.8329C15.1948 21.2793 14.6051 21.5307 13.9955 21.5359C13.381 21.5359 12.7962 21.2844 12.3651 20.838C11.9339 20.3916 11.6911 19.781 11.6911 19.1498C11.6911 18.5136 11.9339 17.9081 12.37 17.4565Z" fill="#4CC35D"/>
</svg>
