<svg width="21" height="20" viewBox="0 0 21 20" fill="none" xmlns="http://www.w3.org/2000/svg">
<path fill-rule="evenodd" clip-rule="evenodd" d="M0.718403 3.00004C0.718403 1.34316 2.06155 0 3.71842 0H17.7182C19.3753 0 20.7182 1.34316 20.7182 3.00004V7.00004C20.7182 7.55235 20.2706 8 19.7183 8C19.166 8 18.7183 7.55235 18.7183 7.00004V3.00004C18.7183 2.44773 18.2705 1.99991 17.7182 1.99991H14.7182V4.99996C14.7182 5.55226 14.2705 6.00008 13.7182 6.00008H7.71821C7.16591 6.00008 6.71826 5.55226 6.71826 4.99996V1.99991H3.71825C3.16595 1.99991 2.71813 2.44773 2.71813 3.00004V17C2.71813 17.5523 3.16595 18.0001 3.71825 18.0001H16.1271C16.6794 18.0001 17.1271 18.4477 17.1271 19C17.1271 19.5523 16.6794 20 16.1271 20H3.71825C2.06138 20 0.718231 18.657 0.718231 17L0.718403 3.00004ZM8.71816 1.99991V4H12.7183V1.99991H8.71816Z" fill="#9A9A9A"/>
<path d="M15.6963 12.0001C15.144 12.0001 14.6961 12.4477 14.6961 13C14.6961 13.5524 15.144 14.0002 15.6963 14.0002H16.6962V15.0001C16.6962 15.5524 17.1439 16.0001 17.6962 16.0001C18.2485 16.0001 18.6963 15.5524 18.6963 15.0001V14.0002H19.6962C20.2486 14.0002 20.6962 13.5524 20.6962 13C20.6962 12.4477 20.2486 12.0001 19.6962 12.0001H18.6963V11.0001C18.6963 10.4478 18.2485 10 17.6962 10C17.1439 10 16.6962 10.4478 16.6962 11.0001V12.0001H15.6963Z" fill="#9A9A9A"/>
</svg>
