<svg width="20" height="20" viewBox="0 0 20 20" fill="none" xmlns="http://www.w3.org/2000/svg">
<circle cx="10" cy="10" r="9.5" stroke="#9A9A9A"/>
<path d="M11.2 11H9.28C9.28 10.744 9.344 10.5 9.472 10.268C9.608 10.028 9.768 9.82 9.952 9.644C10.144 9.46 10.332 9.284 10.516 9.116C10.708 8.948 10.868 8.768 10.996 8.576C11.132 8.384 11.2 8.192 11.2 8C11.2 7.536 10.904 7.304 10.312 7.304C9.736 7.304 9.304 7.64 9.016 8.312L7.36 7.364C7.624 6.764 8.024 6.292 8.56 5.948C9.104 5.604 9.712 5.432 10.384 5.432C11.12 5.432 11.76 5.648 12.304 6.08C12.848 6.512 13.12 7.096 13.12 7.832C13.12 8.16 13.052 8.468 12.916 8.756C12.788 9.044 12.628 9.288 12.436 9.488C12.252 9.688 12.064 9.872 11.872 10.04C11.688 10.208 11.528 10.376 11.392 10.544C11.264 10.704 11.2 10.856 11.2 11ZM11.38 13.028C11.38 13.34 11.268 13.608 11.044 13.832C10.82 14.056 10.552 14.168 10.24 14.168C9.928 14.168 9.66 14.056 9.436 13.832C9.212 13.608 9.1 13.34 9.1 13.028C9.1 12.716 9.212 12.448 9.436 12.224C9.66 12 9.928 11.888 10.24 11.888C10.552 11.888 10.82 12 11.044 12.224C11.268 12.448 11.38 12.716 11.38 13.028Z" fill="#9A9A9A"/>
</svg>
