<svg width="40" height="30" viewBox="0 0 40 30" fill="none" xmlns="http://www.w3.org/2000/svg">
<path d="M5.15609 0.00207471C4.86283 0.0328472 4.58804 0.160857 4.37602 0.365802C4.16369 0.570439 4.02584 0.840304 3.98429 1.13234L0.0141134 28.4835C-0.0418919 28.8642 0.0704257 29.2504 0.32183 29.5418C0.573237 29.8329 0.939114 30.0003 1.32379 30H26.9104C27.295 30.0003 27.6606 29.8329 27.9123 29.5418C28.1637 29.2504 28.2761 28.8642 28.2201 28.4835L24.7321 4.41338C25.8294 4.41768 26.8763 4.69955 27.5582 5.33687L26.5381 8.41128C26.4202 8.76886 26.4602 9.15996 26.6483 9.48642L31.9423 18.7505C32.118 19.0536 32.4069 19.2746 32.7454 19.3651C33.0839 19.4555 33.4445 19.4078 33.748 19.233L39.042 16.1448C39.3451 15.9691 39.5661 15.6801 39.6565 15.3416C39.747 15.0031 39.6993 14.6425 39.5245 14.3391L34.2305 5.07494C34.0471 4.75337 33.7369 4.5232 33.3759 4.44073L29.5848 3.59971C28.2542 2.20017 26.3239 1.76634 24.7047 1.76634H24.3462L24.2496 1.13213C24.2034 0.817947 24.0455 0.530846 23.8049 0.323412C23.5646 0.115702 23.2575 0.0015391 22.9399 0.00184632H5.29402C5.24817 -0.000615441 5.20201 -0.000615441 5.15616 0.00184632L5.15609 0.00207471ZM6.43833 2.64881H21.7958L25.3801 27.3531H2.854L6.43833 2.64881ZM8.80935 3.9446C8.76319 3.94706 8.71734 3.95137 8.67149 3.95845C8.345 3.9963 8.04436 4.15385 7.82771 4.40095C7.61108 4.64836 7.49414 4.96716 7.49968 5.29577V8.96289C7.49968 12.55 10.4919 15.4423 14.1169 15.4423C17.7419 15.4423 20.7341 12.55 20.7341 8.96289V5.29577C20.739 4.94159 20.6021 4.60002 20.3532 4.3477C20.1045 4.09537 19.7651 3.95351 19.4106 3.95351C19.0564 3.95351 18.717 4.09537 18.4684 4.3477C18.2194 4.60003 18.0822 4.9416 18.0874 5.29577V8.96289C18.0874 11.0923 16.3574 12.7952 14.1169 12.7952C11.8764 12.7952 10.1467 11.0923 10.1467 8.96289V5.29577C10.1541 4.93758 10.016 4.59171 9.76394 4.33722C9.51222 4.08243 9.16757 3.94088 8.8094 3.94457L8.80935 3.9446ZM29.9845 6.41251L32.2314 6.90856L36.5878 14.5185L33.5688 16.2695L29.2262 8.68725L29.9845 6.41251Z" fill="white"/>
</svg>
