<svg width="18" height="19" viewBox="0 0 18 19" fill="none" xmlns="http://www.w3.org/2000/svg">
<path fill-rule="evenodd" clip-rule="evenodd" d="M8 2C4.68629 2 2 4.68629 2 8C2 11.3137 4.68629 14 8 14C11.3137 14 14 11.3137 14 8C14 4.68629 11.3137 2 8 2ZM0 8C0 3.58172 3.58172 0 8 0C12.4183 0 16 3.58172 16 8C16 12.4183 12.4183 16 8 16C3.58172 16 0 12.4183 0 8Z" fill="black"/>
<path fill-rule="evenodd" clip-rule="evenodd" d="M12.5196 12.6991C12.9101 12.3086 13.5433 12.3086 13.9338 12.6991L17.7071 16.4724C18.0976 16.863 18.0976 17.4961 17.7071 17.8867C17.3166 18.2772 16.6834 18.2772 16.2929 17.8867L12.5196 14.1134C12.1291 13.7228 12.1291 13.0897 12.5196 12.6991Z" fill="black"/>
</svg>
