<svg width="21" height="24" viewBox="0 0 21 24" fill="none" xmlns="http://www.w3.org/2000/svg">
<path d="M17.209 17.2525C16.2544 17.2525 15.3917 17.6525 14.7787 18.2919L6.61921 12.9121C6.69993 12.6202 6.7475 12.3162 6.7475 12.001C6.7475 11.6838 6.69993 11.3798 6.61921 11.0899L14.7787 5.71008C15.3917 6.34952 16.2544 6.74953 17.209 6.74953C19.0676 6.74953 20.5808 5.23636 20.5808 3.37375C20.5808 1.51316 19.0676 0 17.209 0C15.3485 0 13.8353 1.51316 13.8353 3.37375C13.8353 3.69099 13.8808 3.99495 13.9636 4.28488L5.80411 9.66468C5.19105 9.02525 4.32841 8.62524 3.37375 8.62524C1.51316 8.62524 0 10.1404 0 12.001C0 13.8616 1.51316 15.3748 3.37375 15.3748C4.32841 15.3748 5.19105 14.9748 5.80411 14.3353L13.9636 19.7151C13.8808 20.0051 13.8353 20.311 13.8353 20.6262C13.8353 22.4868 15.3485 24 17.209 24C19.0676 24 20.5808 22.4868 20.5808 20.6262C20.5808 18.7657 19.0667 17.2525 17.209 17.2525Z" fill="#818181"/>
</svg>
