<svg width="25" height="28" viewBox="0 0 25 28" fill="none" xmlns="http://www.w3.org/2000/svg">
<path d="M25 10.6264C25 9.58988 24.2056 8.7484 23.2271 8.7484H19.4778V2.13964C19.4778 0.964633 18.5768 0.00513102 17.4724 0C17.4675 0 17.4627 0 17.4579 0H2.01996C0.905832 0 0 0.959502 0 2.13964V25.8552C0 27.0354 0.905832 27.9949 2.01996 27.9949H23.2271C24.2056 27.9949 25 27.1534 25 26.1169V10.6264ZM19.9913 11.5448H17.9665L17.9132 10.8008H20.0494L19.9913 11.5448ZM14.9051 10.8059H15.9465L16.0628 11.9912C16.0628 12.0117 16.0676 12.0323 16.0725 12.0579C16.2808 12.9712 17.0461 13.6075 17.9326 13.6075H20.0155C20.902 13.6075 21.6673 12.9712 21.8756 12.0579C21.8804 12.0374 21.8853 12.0169 21.8853 11.9912L22.0016 10.8059H23.0479V25.9425H14.9051V10.8059ZM11.8339 3.05296C11.8194 3.08375 11.7952 3.09914 11.7661 3.09914H7.71168C7.68262 3.09914 7.65356 3.08375 7.64387 3.05809L7.5373 2.05754H11.9405L11.8339 3.05296ZM7.71168 5.15668H11.7661C12.6962 5.15668 13.5051 4.48452 13.728 3.52501C13.7328 3.50449 13.7376 3.4891 13.7376 3.46857L13.9072 2.05754H17.4579C17.5015 2.05754 17.5402 2.09859 17.5402 2.14477V8.7484H14.7355C13.757 8.7484 12.9626 9.58988 12.9626 10.6264V25.9425H2.01996C2.01511 25.9425 2.01511 25.9425 2.01027 25.9425C1.99089 25.9425 1.97636 25.9373 1.96183 25.9219C1.95214 25.9117 1.94245 25.8963 1.93761 25.8706V25.8655V2.13964C1.93761 2.09346 1.97152 2.05241 2.01996 2.05241H5.57063L5.74017 3.46344C5.74017 3.47883 5.74501 3.49936 5.74985 3.51475C5.96784 4.48452 6.77194 5.15668 7.71168 5.15668Z" fill="#4CC35D"/>
</svg>
