<svg id="Слой_1" data-name="Слой 1" xmlns="http://www.w3.org/2000/svg" viewBox="0 0 30 30"><title>terminate-fill</title><path d="M25.5,2A2.49,2.49,0,0,1,28,4.5v21A2.49,2.49,0,0,1,25.5,28H4.5A2.49,2.49,0,0,1,2,25.5V4.5A2.49,2.49,0,0,1,4.5,2h21M17.79,7.27,15,10.06,12.17,7.23l-.11-.11a3.55,3.55,0,0,0-2.28-.84,3.64,3.64,0,0,0-1,.14A3.48,3.48,0,0,0,6.42,8.79a3.53,3.53,0,0,0,.7,3.27l.11.11L10.06,15,7.27,17.79a3.49,3.49,0,0,0,2.35,6.09h.13a3.47,3.47,0,0,0,2.46-1.15L15,19.94l2.79,2.79a3.47,3.47,0,0,0,2.46,1.15h.13a3.5,3.5,0,0,0,2.35-6.09L19.94,15l2.79-2.79a3.49,3.49,0,0,0-2.34-6.09h-.14a3.47,3.47,0,0,0-2.46,1.15M25.5,0H4.5A4.51,4.51,0,0,0,0,4.5v21A4.51,4.51,0,0,0,4.5,30h21A4.51,4.51,0,0,0,30,25.5V4.5A4.51,4.51,0,0,0,25.5,0ZM15,12.89l4.25-4.25a1.46,1.46,0,0,1,1.08-.52h.06a1.5,1.5,0,0,1,1.49,1.55,1.49,1.49,0,0,1-.52,1.09L17.11,15l4.25,4.25a1.46,1.46,0,0,1,.52,1.08,1.49,1.49,0,0,1-1.5,1.55h-.05a1.46,1.46,0,0,1-1.08-.52L15,17.12l-4.25,4.24a1.46,1.46,0,0,1-1.08.52H9.62a1.49,1.49,0,0,1-1.5-1.55,1.46,1.46,0,0,1,.52-1.08L12.89,15,8.64,10.76a1.5,1.5,0,0,1,.71-2.42,1.59,1.59,0,0,1,.43-.06,1.46,1.46,0,0,1,1,.36L15,12.89Z"/></svg>