<svg width="30" height="30" viewBox="0 0 30 30" fill="none" xmlns="http://www.w3.org/2000/svg">
<path d="M25.4999 0H4.50006C3.30652 0 2.1619 0.474114 1.31788 1.31788C0.474114 2.1619 0 3.30652 0 4.50006V25.4999C0 26.6935 0.474114 27.8381 1.31788 28.6821C2.1619 29.5259 3.30652 30 4.50006 30H25.4999C26.6935 30 27.8381 29.5259 28.6821 28.6821C29.5259 27.8381 30 26.6935 30 25.4999V4.50006C30 3.30652 29.5259 2.1619 28.6821 1.31788C27.8381 0.474114 26.6935 0 25.4999 0ZM21.36 19.2455C21.6774 19.5172 21.867 19.9092 21.8831 20.3268C21.8994 20.7444 21.7404 21.1497 21.4449 21.4453C21.1493 21.7408 20.744 21.8998 20.3264 21.8835C19.9088 21.8674 19.5168 21.6778 19.2451 21.3604L15 17.1152L10.7548 21.3604C10.4831 21.6778 10.0911 21.8674 9.67349 21.8835C9.25587 21.8998 8.85055 21.7408 8.55503 21.4453C8.2595 21.1497 8.1005 20.7444 8.11682 20.3268C8.1329 19.9092 8.32249 19.5172 8.63991 19.2455L12.8851 15.0003L8.63991 10.7552C8.30918 10.3692 8.19668 9.84183 8.34083 9.35416C8.48497 8.86673 8.86642 8.48526 9.35385 8.34113C9.84153 8.19698 10.3689 8.30949 10.7549 8.64021L15 12.8854L19.2452 8.64021C19.5169 8.32279 19.9089 8.1332 20.3265 8.11713C20.7441 8.1008 21.1494 8.25976 21.4449 8.55533C21.7405 8.85089 21.8995 9.25618 21.8832 9.67379C21.8671 10.0914 21.6775 10.4834 21.3601 10.7551L17.1149 15.0003L21.36 19.2455Z" fill="white"/>
</svg>
