<svg width="17" height="20" viewBox="0 0 17 20" fill="none" xmlns="http://www.w3.org/2000/svg">
<path d="M15.1285 3.92391V17.2785C15.1285 18.7974 13.9857 20 12.6713 20H4.32857C2.95716 20 1.87141 18.7974 1.87141 17.2785V3.92391H0.557168C-0.185723 3.92391 -0.185723 2.65816 0.557168 2.65816H4.55715V1.96203C4.55715 0.886138 5.35712 0 6.32863 0H10.6714C11.6428 0 12.4428 0.886031 12.4428 1.96203V2.65816H16.4428C17.1857 2.65816 17.1857 3.92391 16.4428 3.92391H15.1285ZM5.69972 2.65816H11.2997V1.96203C11.2997 1.58228 11.014 1.26589 10.6712 1.26589H6.32843C5.98557 1.26589 5.69991 1.58229 5.69991 1.96203V2.65816H5.69972ZM3.01394 3.92391V17.2785C3.01394 18.1013 3.58542 18.7341 4.32818 18.7341H12.6709C13.3566 18.7341 13.9852 18.1012 13.9852 17.2785V3.92391H3.01381H3.01394Z" fill="#818181"/>
<path d="M5.52832 7.27812C5.52832 6.45531 6.67111 6.45531 6.67111 7.27812V15.316C6.67111 16.1388 5.52832 16.1388 5.52832 15.316V7.27812Z" fill="#818181"/>
<path d="M10.3286 7.27812C10.3286 6.45531 11.4714 6.45531 11.4714 7.27812V15.316C11.4714 16.1388 10.3286 16.1388 10.3286 15.316V7.27812Z" fill="#818181"/>
<path d="M7.92871 7.27812C7.92871 6.45531 9.0715 6.45531 9.0715 7.27812V15.316C9.0715 16.1388 7.92871 16.1388 7.92871 15.316V7.27812Z" fill="#818181"/>
</svg>
