<svg width="23" height="19" viewBox="0 0 23 19" fill="none" xmlns="http://www.w3.org/2000/svg">
<path d="M0 2.19011C0 2.19011 0 2.12167 0 2.19011C0 1.98479 0 1.91635 0 1.77947C0.0686567 1.23194 0.274627 0.684411 0.549254 0.205323C0.617911 0.136882 0.61791 0.0684411 0.686567 0.0684411C0.755224 0.136882 0.823881 0.205323 0.892537 0.273764C1.37313 0.821293 1.85373 1.36882 2.40299 1.84791C3.22687 2.60076 4.05075 3.28517 5.01194 3.8327C5.83582 4.31179 6.72836 4.72243 7.68955 5.06464C8.37612 5.26996 9.06269 5.40684 9.81791 5.54373C10.0239 5.54373 10.2985 5.54373 10.5731 5.54373C10.7791 5.54373 10.9851 5.54373 11.1224 5.54373C11.191 5.54373 11.191 5.54373 11.191 5.47529C11.1224 5.3384 11.1224 5.13308 11.1224 4.9962C11.1224 4.79087 11.1224 4.65399 11.1224 4.44867C11.1224 3.90114 11.2597 3.35361 11.4657 2.80608C11.6716 2.327 11.9463 1.91635 12.2896 1.5057C12.6328 1.1635 12.9761 0.821293 13.3881 0.61597C13.9373 0.273764 14.5552 0.0684411 15.1731 0C15.2418 0 15.3791 0 15.4478 0C15.5164 0 15.5851 0 15.6537 0C15.791 0 15.8597 0 15.997 0C16.0657 0 16.1343 0 16.203 0C16.3403 0 16.4776 0 16.6836 0.0684411C17.3701 0.205323 17.9881 0.410646 18.5373 0.752852C18.8119 0.958175 19.1552 1.1635 19.3612 1.43726C19.4299 1.5057 19.4299 1.5057 19.4985 1.5057C19.9791 1.43726 20.4597 1.30038 20.9403 1.09506C21.4209 0.889734 21.8328 0.684411 22.2448 0.479088C22.2448 0.479088 22.3134 0.410646 22.3134 0.479088V0.547529C22.2448 0.684411 22.2448 0.752852 22.1761 0.821293C21.8328 1.43726 21.4209 1.98479 20.8716 2.46388C20.803 2.6692 20.597 2.80608 20.391 2.87452C20.5284 2.87452 20.6657 2.80608 20.803 2.80608C21.4896 2.6692 22.1075 2.46388 22.7254 2.19011C22.794 2.19011 22.8627 2.12167 22.9313 2.12167C22.9313 2.19011 22.9313 2.19011 22.8627 2.25856C22.6567 2.53232 22.5194 2.73764 22.3134 2.94297C22.1761 3.14829 21.9701 3.35361 21.7642 3.49049C21.4209 3.8327 21.009 4.17491 20.6657 4.44867C20.6657 4.58555 20.597 4.65399 20.597 4.72243C20.597 4.92776 20.597 5.13308 20.597 5.3384C20.597 5.81749 20.5284 6.29658 20.4597 6.77567C20.391 7.39164 20.2537 7.93916 20.1164 8.55513C19.9104 9.1711 19.7045 9.78707 19.4299 10.3346C19.0866 11.019 18.7433 11.7034 18.3313 12.3194C17.9881 12.7985 17.6448 13.2776 17.2328 13.7567C16.9582 14.0304 16.7522 14.3042 16.4776 14.5779C15.7224 15.3308 14.8985 15.9468 13.9373 16.4259C13.1821 16.8365 12.4269 17.1787 11.6716 17.4525C10.9164 17.7262 10.0925 17.8631 9.26866 18C8.78806 18.0684 8.30746 18.1369 7.82687 18.1369C7.75821 18.1369 7.75821 18.1369 7.68955 18.1369H7.6209H7.55224C7.48358 18.1369 7.48358 18.1369 7.41493 18.1369C7.27761 18.1369 7.1403 18.1369 7.00299 18.1369C6.93433 18.1369 6.86567 18.1369 6.72836 18.1369H6.6597C6.59104 18.1369 6.59104 18.1369 6.52239 18.1369H6.45373H6.38508H6.31642C5.83582 18.1369 5.42388 18.1369 4.94328 18.0684C4.32537 18 3.70746 17.9316 3.08955 17.7262C2.40299 17.5209 1.71642 17.3156 1.02985 17.0418C0.686567 16.8365 0.343284 16.6996 0.0686567 16.4943C0.0686567 16.4943 0 16.4943 0 16.4259V16.3574H0.0686567C0.343284 16.3574 0.549254 16.3574 0.823881 16.3574C1.16716 16.3574 1.5791 16.3574 1.92239 16.289C2.74627 16.2205 3.50149 16.0152 4.25672 15.673C4.66866 15.5361 5.01194 15.3308 5.42388 15.1255C5.90448 14.8517 6.38507 14.5095 6.79701 14.1673C6.79701 14.1673 6.79702 14.1673 6.86567 14.1673C6.72836 14.1673 6.59104 14.1673 6.45373 14.1673C5.97313 14.0989 5.49254 13.962 5.0806 13.7567C4.53134 13.4829 3.98209 13.1407 3.50149 12.73C3.22687 12.4563 2.88358 12.251 2.67761 11.9087C2.40299 11.5665 2.12836 11.2928 1.92239 10.8821C1.78507 10.6768 1.71642 10.4715 1.64776 10.2662V10.1977H1.71642C1.99104 10.2662 2.19702 10.2662 2.47164 10.2662C2.88358 10.2662 3.22687 10.1977 3.57015 10.1293C3.36418 10.0608 3.22687 10.0608 3.08955 9.9924C2.5403 9.78707 1.99104 9.51331 1.51045 9.10266C0.755224 8.48669 0.274627 7.6654 0.0686567 6.70722C0.0686567 6.5019 0 6.22814 0 5.95437C0 5.95437 0 5.95437 0 5.88593C0 5.81749 0 5.81749 0 5.74905C0 5.68061 0 5.68061 0 5.61217C0 5.54373 0.0686567 5.61217 0.0686567 5.61217C0.480597 5.81749 0.961194 5.95437 1.37313 6.02281C1.64776 6.09126 1.85373 6.09126 2.0597 6.1597C1.71642 5.95437 1.44179 5.68061 1.16716 5.40684C0.892537 5.06464 0.617911 4.65399 0.41194 4.24335C0.20597 3.8327 0.0686567 3.35361 0 2.87452C0 2.80608 0 2.6692 0 2.60076C0 2.53232 0 2.53232 0 2.46388C0 2.39544 0 2.327 0 2.25856V2.19011Z" fill="white"/>
</svg>
