<svg width="230" height="86" viewBox="0 0 230 86" fill="none" xmlns="http://www.w3.org/2000/svg">
<rect width="230" height="86" fill="#4CC35D"/>
<path d="M34.68 35.2H39.432V48.232H47.448V52H34.68V35.2ZM57.5426 52.336C55.7666 52.336 54.1666 51.96 52.7426 51.208C51.3346 50.456 50.2226 49.416 49.4066 48.088C48.6066 46.76 48.2066 45.264 48.2066 43.6C48.2066 41.936 48.6066 40.44 49.4066 39.112C50.2226 37.784 51.3346 36.744 52.7426 35.992C54.1666 35.24 55.7666 34.864 57.5426 34.864C59.3186 34.864 60.9106 35.24 62.3186 35.992C63.7426 36.744 64.8546 37.784 65.6546 39.112C66.4706 40.44 66.8786 41.936 66.8786 43.6C66.8786 45.264 66.4706 46.76 65.6546 48.088C64.8546 49.416 63.7426 50.456 62.3186 51.208C60.9106 51.96 59.3186 52.336 57.5426 52.336ZM57.5426 48.4C58.3906 48.4 59.1586 48.2 59.8466 47.8C60.5346 47.4 61.0786 46.84 61.4786 46.12C61.8786 45.384 62.0786 44.544 62.0786 43.6C62.0786 42.656 61.8786 41.824 61.4786 41.104C61.0786 40.368 60.5346 39.8 59.8466 39.4C59.1586 39 58.3906 38.8 57.5426 38.8C56.6946 38.8 55.9266 39 55.2386 39.4C54.5506 39.8 54.0066 40.368 53.6066 41.104C53.2066 41.824 53.0066 42.656 53.0066 43.6C53.0066 44.544 53.2066 45.384 53.6066 46.12C54.0066 46.84 54.5506 47.4 55.2386 47.8C55.9266 48.2 56.6946 48.4 57.5426 48.4ZM84.5355 52L84.4875 43.096L80.1675 50.344H78.0555L73.7595 43.336V52H69.3675V35.2H73.2795L79.1835 44.896L84.9435 35.2H88.8555L88.9035 52H84.5355ZM105.178 43.24C106.138 43.576 106.89 44.104 107.434 44.824C107.978 45.528 108.25 46.384 108.25 47.392C108.25 48.864 107.658 50 106.474 50.8C105.29 51.6 103.578 52 101.338 52H92.2659V35.2H100.858C103.002 35.2 104.634 35.6 105.754 36.4C106.874 37.184 107.434 38.248 107.434 39.592C107.434 40.392 107.234 41.112 106.834 41.752C106.45 42.376 105.898 42.872 105.178 43.24ZM96.9699 38.632V41.872H100.234C101.834 41.872 102.634 41.328 102.634 40.24C102.634 39.168 101.834 38.632 100.234 38.632H96.9699ZM100.954 48.568C102.618 48.568 103.45 48 103.45 46.864C103.45 45.728 102.618 45.16 100.954 45.16H96.9699V48.568H100.954ZM121.967 48.736H114.863L113.543 52H108.695L116.111 35.2H120.791L128.231 52H123.287L121.967 48.736ZM120.575 45.232L118.415 39.856L116.255 45.232H120.575ZM136.922 47.536H134.33V52H129.578V35.2H137.258C138.778 35.2 140.098 35.456 141.218 35.968C142.338 36.464 143.202 37.184 143.81 38.128C144.418 39.056 144.722 40.152 144.722 41.416C144.722 42.632 144.434 43.696 143.858 44.608C143.298 45.504 142.49 46.208 141.434 46.72L145.058 52H139.97L136.922 47.536ZM139.922 41.416C139.922 40.632 139.674 40.024 139.178 39.592C138.682 39.16 137.946 38.944 136.97 38.944H134.33V43.864H136.97C137.946 43.864 138.682 43.656 139.178 43.24C139.674 42.808 139.922 42.2 139.922 41.416ZM147.344 35.2H155.288C157.128 35.2 158.76 35.544 160.184 36.232C161.608 36.92 162.712 37.896 163.496 39.16C164.28 40.424 164.672 41.904 164.672 43.6C164.672 45.296 164.28 46.776 163.496 48.04C162.712 49.304 161.608 50.28 160.184 50.968C158.76 51.656 157.128 52 155.288 52H147.344V35.2ZM155.096 48.208C156.536 48.208 157.688 47.8 158.552 46.984C159.432 46.168 159.872 45.04 159.872 43.6C159.872 42.16 159.432 41.032 158.552 40.216C157.688 39.4 156.536 38.992 155.096 38.992H152.096V48.208H155.096ZM179.058 48.232V52H165.978V49.024L172.266 43.144C172.874 42.568 173.282 42.08 173.49 41.68C173.698 41.264 173.802 40.848 173.802 40.432C173.802 39.888 173.618 39.464 173.25 39.16C172.882 38.856 172.346 38.704 171.642 38.704C171.018 38.704 170.442 38.848 169.914 39.136C169.402 39.408 168.978 39.808 168.642 40.336L165.114 38.368C165.77 37.28 166.69 36.424 167.874 35.8C169.058 35.176 170.458 34.864 172.074 34.864C173.354 34.864 174.482 35.072 175.458 35.488C176.45 35.904 177.218 36.504 177.762 37.288C178.322 38.056 178.602 38.952 178.602 39.976C178.602 40.888 178.402 41.752 178.002 42.568C177.618 43.368 176.866 44.28 175.746 45.304L172.578 48.232H179.058ZM196.164 48.784H193.668V52H189.036V48.784H180.156V45.688L187.692 35.2H192.612L185.772 45.016H189.18V42.16H193.668V45.016H196.164V48.784Z" fill="white"/>
</svg>
