<svg width="23" height="23" viewBox="0 0 23 23" fill="none" xmlns="http://www.w3.org/2000/svg">
<path d="M23 0.978796C23 0.964047 22.9961 0.950117 22.9955 0.935573C23 0.865102 22.9988 0.793819 22.9854 0.720889C22.8974 0.242771 22.441 -0.0729148 21.9674 0.0145572L9.15049 2.40268C8.72115 2.48257 8.42693 2.86707 8.4389 3.29376C8.43808 3.30564 8.43524 3.3165 8.43524 3.32818V6.48163V6.48183V15.9533C7.49488 15.3606 6.34198 15.0218 5.16427 15.0218C2.31656 15.0218 0 16.8114 0 19.011C0 21.2475 2.24442 23 5.10981 23C7.9545 22.9998 10.1828 21.2477 10.1828 19.0108V7.23248L21.252 5.17007V13.0562C20.3082 12.454 19.1547 12.1088 17.981 12.1088C15.0854 12.1088 12.8168 13.8557 12.8168 16.0859C12.8168 18.319 15.0612 20.0686 17.9266 20.0686C20.7714 20.069 22.9998 18.3141 22.9998 16.0738L23 0.978796ZM8.43532 19.0107C8.43532 20.2388 6.94327 21.2377 5.10968 21.2377C3.28728 21.2377 1.74748 20.2177 1.74748 19.0107C1.74748 17.8034 3.31204 16.7836 5.16414 16.7836C6.43408 16.7836 7.69164 17.3428 8.36744 18.2081C8.38877 18.2354 8.41113 18.261 8.4351 18.2851L8.4349 19.0107L8.43532 19.0107ZM21.2522 16.074C21.2522 17.3052 19.7606 18.3071 17.9268 18.3071C16.1042 18.3071 14.5646 17.29 14.5646 16.0863C14.5646 14.8855 16.1292 13.8711 17.9813 13.8711C19.2396 13.8711 20.4972 14.4399 21.1846 15.32C21.2055 15.3472 21.2283 15.3728 21.2518 15.397L21.252 16.074L21.2522 16.074ZM10.1831 5.4405V4.00204L21.2522 1.93963V3.37809L10.1831 5.4405Z" fill="#4CC35D"/>
</svg>
