<svg width="28" height="24" viewBox="0 0 28 24" fill="none" xmlns="http://www.w3.org/2000/svg">
<path d="M1.8609 0.0287605C1.36199 0.0287605 0.980469 0.40251 0.980469 0.891261C0.980469 1.38001 1.36199 1.75376 1.8609 1.75376H5.38264C6.85003 5.29001 8.28807 8.82625 9.72612 12.3625L8.40547 15.4963C8.28807 15.755 8.31742 16.0713 8.49351 16.3013C8.64025 16.5313 8.93373 16.675 9.22721 16.675H23.9011C24.3707 16.675 24.7815 16.2725 24.7815 15.8125C24.7815 15.3525 24.3413 14.95 23.9011 14.95H10.5185L11.2816 13.1675L25.4272 12.075C25.8087 12.0462 26.1315 11.7588 26.2196 11.4138L27.9805 3.93875C28.0979 3.42125 27.6576 2.875 27.1294 2.875H7.73047L6.76199 0.546257C6.6446 0.230007 6.29242 0 5.94025 0H1.8609V0.0287605ZM8.43481 4.62876H13.8935V7.21626H9.49134L8.43481 4.62876ZM15.6544 4.62876H19.1761V7.21626H15.6544V4.62876ZM20.937 4.62876H25.9848L25.3685 7.21626H20.937V4.62876ZM10.1957 8.94126H13.8935V11.27L11.2522 11.4713L10.1957 8.94126ZM15.6544 8.94126H19.1761V10.8675L15.6544 11.155V8.94126ZM20.937 8.94126H24.987L24.6348 10.4362L20.937 10.7237V8.94126ZM12.1326 17.2788C10.5185 17.2788 9.19786 18.5725 9.19786 20.1538C9.19786 21.735 10.5185 23.0288 12.1326 23.0288C13.7468 23.0288 15.0674 21.735 15.0674 20.1538C15.0674 18.5725 13.7468 17.2788 12.1326 17.2788ZM20.937 17.2788C19.3229 17.2788 18.0022 18.5725 18.0022 20.1538C18.0022 21.735 19.3229 23.0288 20.937 23.0288C22.5511 23.0288 23.8718 21.735 23.8718 20.1538C23.8718 18.5725 22.5511 17.2788 20.937 17.2788ZM12.1326 19.0038C12.7783 19.0038 13.3066 19.5213 13.3066 20.1538C13.3066 20.7863 12.7783 21.3038 12.1326 21.3038C11.487 21.3038 10.9587 20.7863 10.9587 20.1538C10.9587 19.5213 11.487 19.0038 12.1326 19.0038ZM20.937 19.0038C21.5826 19.0038 22.1109 19.5213 22.1109 20.1538C22.1109 20.7863 21.5826 21.3038 20.937 21.3038C20.2913 21.3038 19.7631 20.7863 19.7631 20.1538C19.7631 19.5213 20.2913 19.0038 20.937 19.0038Z" fill="black"/>
</svg>
