<svg width="18" height="26" viewBox="0 0 18 26" fill="none" xmlns="http://www.w3.org/2000/svg">
<path d="M11.466 12.1011H9.63628V8.07571C9.63628 7.83174 9.5143 7.58778 9.39231 7.4658C9.14835 7.22183 8.90439 7.09985 8.66042 7.09985H8.53844C8.05052 7.09985 7.68457 7.58778 7.68457 8.07571V13.077C7.68457 13.5649 8.05051 14.0528 8.66042 14.0528H11.466C11.71 14.0528 11.9539 13.9308 12.0759 13.8088C12.1979 13.6869 12.3199 13.4429 12.3199 13.1989C12.3199 12.955 12.1979 12.711 12.0759 12.589C11.9539 12.2231 11.71 12.1011 11.466 12.1011Z" fill="#4CC35D"/>
<path d="M14.5158 6.61202L13.174 1.12285C13.052 0.756903 12.6861 0.512939 12.3201 0.512939H5.12323H5.00125C4.6353 0.512939 4.26936 0.878885 4.14738 1.24483L2.80558 6.61202C0.975853 8.31977 0 10.6374 0 13.0771C0 15.5167 0.975853 17.8343 2.80558 19.4201L4.14738 24.9093C4.26936 25.2752 4.6353 25.6412 5.00125 25.6412H12.1982C12.5641 25.6412 12.9301 25.3972 13.052 24.9093L14.3938 19.4201C16.2236 17.7124 17.1994 15.3947 17.1994 13.0771C17.3214 10.6374 16.3455 8.31977 14.5158 6.61202ZM15.4917 13.0771C15.4917 16.8585 12.4421 19.908 8.6607 19.908C4.87927 19.908 1.82973 16.8585 1.82973 13.0771C1.82973 9.29562 4.87927 6.24608 8.6607 6.24608C12.4421 6.24608 15.4917 9.29562 15.4917 13.0771ZM11.5883 2.34266L12.3201 5.14824C10.0025 4.17239 7.3189 4.17239 5.12323 5.14824L5.85512 2.34266H11.5883ZM12.3201 21.0059L11.5883 23.8114H5.85512L5.12323 21.0059C7.3189 21.9817 10.0025 21.9817 12.3201 21.0059Z" fill="#4CC35D"/>
</svg>
