<svg width="20" height="20" viewBox="0 0 20 20" fill="none" xmlns="http://www.w3.org/2000/svg">
<path d="M9.98603 4.36622C9.72861 4.36987 9.48311 4.4758 9.30377 4.66035C9.12422 4.8451 9.0256 5.09348 9.02944 5.35088V9.02906H4.79165C4.44484 9.02906 4.12436 9.21418 3.95097 9.51447C3.77757 9.81476 3.77757 10.1846 3.95097 10.4849C4.12438 10.7854 4.44484 10.9703 4.79165 10.9703H10.0005H10.0003C10.2577 10.9702 10.5043 10.8679 10.6862 10.686C10.8681 10.5042 10.9704 10.2575 10.9704 10.0003V5.35084C10.9742 5.08862 10.8718 4.83582 10.6862 4.65033C10.5007 4.46481 10.2481 4.36234 9.98592 4.36619L9.98603 4.36622Z" fill="#9A9A9A"/>
<path d="M9.83348 0.00185579C9.19158 0.0130058 8.55278 0.0847129 7.92702 0.217168C6.6757 0.481887 5.47438 0.985747 4.39688 1.71318C3.31933 2.44042 2.3662 3.39203 1.61455 4.54704C-1.39194 9.16722 -0.0775799 15.3786 4.5428 18.3851C9.16298 21.3916 15.3744 20.0784 18.3809 15.4582C19.1325 14.3032 19.6168 13.0452 19.8454 11.7654C20.0739 10.4856 20.0474 9.18376 19.7825 7.93244H19.7827C19.7335 7.67656 19.5835 7.45125 19.3665 7.30707C19.1495 7.16308 18.8838 7.11214 18.6289 7.16615C18.374 7.21999 18.1515 7.37416 18.0114 7.5937C17.8714 7.81324 17.8255 8.08008 17.8841 8.33384C18.0979 9.34371 18.1187 10.3945 17.9345 11.4245C17.7505 12.4546 17.3622 13.4644 16.7535 14.3997C14.3192 18.1408 9.34237 19.1935 5.60111 16.7591C1.86004 14.3245 0.805968 9.34642 3.24055 5.60515C3.84918 4.66989 4.6151 3.90628 5.48231 3.32073C6.34951 2.73532 7.31859 2.32896 8.32846 2.11517C9.33834 1.9014 10.3891 1.88064 11.4192 2.06481V2.065C11.676 2.11902 11.9438 2.06654 12.1614 1.91986C12.3792 1.77298 12.528 1.54422 12.5742 1.28583C12.6203 1.02726 12.5597 0.761207 12.4063 0.548208C12.2529 0.335204 12.0197 0.193329 11.76 0.15507C11.12 0.040878 10.4753 -0.00949284 9.83336 0.00146717L9.83348 0.00185579Z" fill="#9A9A9A"/>
<path d="M16.3219 0.191371C16.0647 0.195216 15.8196 0.301143 15.6404 0.485888C15.4612 0.670441 15.3626 0.918629 15.3664 1.17587V6.14946C15.3664 6.49626 15.5514 6.81675 15.8517 6.99013C16.1519 7.16354 16.522 7.16354 16.8223 6.99013C17.1226 6.81673 17.3077 6.49627 17.3077 6.14946V1.17587C17.3116 0.913461 17.2089 0.660648 17.023 0.47516C16.8373 0.289647 16.5843 0.187178 16.3219 0.19141L16.3219 0.191371Z" fill="#9A9A9A"/>
<path d="M13.8504 2.69189C13.5037 2.69189 13.1833 2.87683 13.0099 3.17731C12.8365 3.47759 12.8365 3.84746 13.0099 4.14777C13.1833 4.44805 13.5037 4.63318 13.8504 4.63318H18.8239C19.1707 4.63318 19.4912 4.44805 19.6646 4.14777C19.8378 3.84748 19.8378 3.47761 19.6646 3.17731C19.4912 2.87683 19.1707 2.69189 18.8239 2.69189H13.8504Z" fill="#9A9A9A"/>
</svg>
