<svg width="29" height="22" viewBox="0 0 29 22" fill="none" xmlns="http://www.w3.org/2000/svg">
<path d="M28 2.22135e-07L1 0C0.331522 0 0 0.355714 0 1V17C0 17.6443 0.331522 18 1 18H13.0326V19.6533H8.31522C7.64674 19.6533 7.09783 20.1824 7.09783 20.8267C7.09783 21.471 7.64674 22 8.31522 22H20.1522C20.8207 22 21.3696 21.471 21.3696 20.8267C21.3696 20.1824 20.8207 19.6533 20.1522 19.6533H16V18H28C28.6685 18 28.9674 17.6443 28.9674 17V1C28.9674 0.355714 28.6685 2.22135e-07 28 2.22135e-07ZM26.9674 16H2V2L26.9674 2V16Z" fill="#4CC35D"/>
</svg>
