<svg width="13" height="12" viewBox="0 0 13 12" fill="none" xmlns="http://www.w3.org/2000/svg">
<path d="M0.36208 11.6542C0.576319 11.8671 0.866175 11.9868 1.16829 11.9868C1.47041 11.9868 1.76026 11.8671 1.9745 11.6542L6.02303 7.54841L10.0716 11.6542C10.3697 11.9525 10.8045 12.0689 11.2119 11.9598C11.6193 11.8506 11.9377 11.5322 12.0468 11.1248C12.156 10.7174 12.0395 10.2826 11.7413 9.9845L7.63547 5.93597L11.7413 1.88743C11.9934 1.59317 12.0792 1.19091 11.9693 0.819302C11.8594 0.447689 11.5686 0.156848 11.1969 0.046962C10.8251 -0.0629339 10.4231 0.0228385 10.1286 0.274983L6.02303 4.32352L1.97449 0.274983C1.68022 0.022838 1.27797 -0.0629339 0.90636 0.046962C0.534747 0.156858 0.243906 0.447679 0.134019 0.819302C0.0241235 1.19091 0.109897 1.59316 0.362041 1.88743L4.41058 5.93597L0.362041 9.9845C0.131148 10.2007 0 10.503 0 10.8192C0 11.1357 0.131148 11.4378 0.362041 11.6542L0.36208 11.6542Z" fill="#7F5FC2"/>
</svg>
