<svg width="29" height="24" viewBox="0 0 29 24" fill="none" xmlns="http://www.w3.org/2000/svg">
<path d="M5.30176 0.374512L0.19163 7.36541C-0.0638767 7.73992 -0.0638767 8.23927 0.19163 8.48895L13.7335 23.7191C14.1167 24.0936 14.8833 24.0936 15.1388 23.7191L28.8084 8.48895C29.0639 8.11443 29.0639 7.61508 28.8084 7.36541L23.6982 0.374512C23.4427 0.124837 23.1872 0 22.9317 0H6.06828C5.68502 0 5.42951 0.124837 5.30176 0.374512ZM7.47357 1.87256H12.4559L9.00661 5.9922L7.47357 1.87256ZM16.5441 1.87256H21.5264L19.9934 5.9922L16.5441 1.87256ZM14.5 2.49675L18.3326 6.9909H10.6674L14.5 2.49675ZM5.81278 2.87126L7.34582 6.86606H2.7467L5.81278 2.87126ZM23.1872 2.87126L26.1256 6.86606H21.6542L23.1872 2.87126ZM3.0022 8.86346H7.98458L11.8172 18.7256L3.0022 8.86346ZM10.1564 8.86346H18.8436L14.5 20.0988L10.1564 8.86346ZM20.8877 8.86346H25.87L17.0551 18.7256L20.8877 8.86346Z" fill="#4CC35D"/>
</svg>
