<svg width="19" height="20" viewBox="0 0 19 20" fill="none" xmlns="http://www.w3.org/2000/svg">
<path d="M16.2002 15.4103C15.1201 16.9763 13.3614 17.9373 11.4601 18.0004C8.78002 18.0004 6.45992 16.0003 5.46005 13.0002H11.0003C11.3575 13.0002 11.6877 12.8095 11.8663 12.5001C12.0449 12.1907 12.0449 11.8096 11.8663 11.5002C11.6877 11.1908 11.3575 11.0001 11.0003 11.0001H5.0499C5.0499 10.6701 4.99984 10.3301 4.99984 10.0001C4.99984 9.67018 4.99984 9.33015 5.0499 9.00019H11.0003C11.3575 9.00019 11.6877 8.80951 11.8663 8.50012C12.0449 8.19074 12.0449 7.80956 11.8663 7.50017C11.6877 7.19078 11.3575 7.0001 11.0003 7.0001H5.46991C6.46986 4.00006 8.77998 1.99989 11.47 1.99989C13.3678 2.06618 15.1221 3.0268 16.2002 4.58995C16.343 4.83572 16.5836 5.00915 16.8618 5.06692C17.1401 5.12468 17.4299 5.06123 17.6586 4.89264C17.8872 4.72389 18.0334 4.46591 18.0605 4.18296C18.0875 3.90003 17.9929 3.61895 17.8002 3.41002C17.088 2.38109 16.1421 1.53568 15.0401 0.943042C13.938 0.350233 12.7112 0.027129 11.4601 0C7.70004 0 4.46016 2.84001 3.39001 6.99996H1C0.642742 6.99996 0.312604 7.19064 0.133973 7.50002C-0.0446578 7.8094 -0.0446578 8.19059 0.133973 8.49998C0.312604 8.80937 0.642738 9.00004 1 9.00004H3.05014V10V11H1C0.642742 11 0.312604 11.1906 0.133973 11.5C-0.0446578 11.8094 -0.0446578 12.1906 0.133973 12.5C0.312604 12.8094 0.642738 13 1 13H3.39018C4.48022 17.1601 7.70038 20 11.4603 20H11.4601C12.7112 19.9729 13.938 19.6498 15.0401 19.057C16.1422 18.4643 17.088 17.6189 17.8002 16.59C17.9666 16.3035 17.9803 15.9532 17.8367 15.6545C17.6932 15.3558 17.411 15.1477 17.0832 15.0988C16.7555 15.0498 16.4249 15.1663 16.2002 15.41L16.2002 15.4103Z" fill="#9A9A9A"/>
</svg>
