<svg width="38" height="47" viewBox="0 0 38 47" fill="none" xmlns="http://www.w3.org/2000/svg">
<path d="M29.1367 11.7552C29.1367 12.0734 29.2636 12.3781 29.4891 12.603C29.7146 12.8281 30.0207 12.9542 30.3395 12.9542H33.0336C33.6981 12.9542 34.2364 12.4176 34.2364 11.7552C34.2364 11.0932 33.6981 10.5562 33.0336 10.5562H30.3395C29.6754 10.5562 29.1367 11.0932 29.1367 11.7552Z" fill="black"/>
<path d="M10.6514 11.7552C10.6514 12.0734 10.7782 12.3781 11.0037 12.603C11.2293 12.8281 11.5353 12.9542 11.8542 12.9542H14.5486C15.2128 12.9542 15.7514 12.4176 15.7514 11.7552C15.7514 11.0932 15.2128 10.5562 14.5486 10.5562H11.8542C11.19 10.5562 10.6514 11.0932 10.6514 11.7552Z" fill="black"/>
<path d="M23.6468 3.88469V1.199C23.6468 0.536606 23.1081 0 22.444 0C21.7798 0 21.2412 0.536606 21.2412 1.199V3.88469C21.2412 4.54675 21.7798 5.08369 22.444 5.08369C23.1081 5.08369 23.6468 4.54675 23.6468 3.88469Z" fill="black"/>
<path d="M29.0976 3.44345L27.1733 5.36168H27.1729C26.7028 5.83072 26.7028 6.59083 27.1729 7.05947C27.6435 7.52851 28.406 7.52851 28.8761 7.05947L30.8004 5.14124H30.8007C31.2709 4.67221 31.2709 3.91209 30.8007 3.44345C30.3302 2.97442 29.5677 2.97442 29.0976 3.44345Z" fill="black"/>
<path d="M16.863 7.39041C17.3503 7.39141 17.7899 7.09936 17.9762 6.65073C18.1628 6.20211 18.0594 5.68553 17.7148 5.3427L15.7905 3.42447H15.7901C15.32 2.95543 14.5575 2.95543 14.087 3.42447C13.6168 3.89317 13.6168 4.65328 14.087 5.12192L16.0116 7.0405C16.2372 7.26564 16.5439 7.39177 16.863 7.39043L16.863 7.39041Z" fill="black"/>
<path d="M2.40557 21.2171C1.7676 21.2171 1.1558 21.4696 0.704754 21.9196C0.253711 22.3692 0 22.9791 0 23.6151V44.6019C0 45.2379 0.253711 45.8481 0.704754 46.2978C1.1558 46.7474 1.76758 47 2.40557 47H9.37226C9.98204 47.0016 10.5697 46.7721 11.0164 46.358C11.4631 45.9441 11.7352 45.3764 11.7778 44.7699L13.2692 45.6618V45.6621C14.6891 46.5115 16.3138 46.9608 17.9696 46.9618H28.1357C29.3653 46.9749 30.5842 46.733 31.7152 46.2519C34.9628 44.813 35.4725 42.2856 35.2323 40.6072C36.0659 39.909 36.6636 38.9719 36.9431 37.9231C37.223 36.8743 37.1717 35.765 36.7958 34.7463C37.6009 33.7754 38.0278 32.5476 37.9986 31.2884C37.9459 30.3018 37.6029 29.3527 37.0123 28.5592C37.3815 27.7125 37.4734 26.7711 37.2758 25.8689C37.0781 24.9669 36.6005 24.1497 35.9105 23.5331C35.8112 23.4404 35.7068 23.3524 35.5977 23.2695H35.5981C35.0507 22.8637 34.4194 22.5853 33.7506 22.4542H33.6976C30.5077 21.7781 28.3619 21.7349 25.2059 21.7349C25.0858 21.0107 25.0905 19.4905 26.0429 16.6271C26.9232 13.9748 26.8463 11.7832 25.812 10.1092C24.9485 8.75435 23.5263 7.85141 21.9295 7.64398H21.7805C21.2281 7.63462 20.6875 7.80423 20.2404 8.12773C19.7938 8.45157 19.4646 8.91123 19.3028 9.43781C19.2857 9.49435 19.2726 9.55189 19.2642 9.61044L18.9034 12.2001C18.7947 12.9783 18.5675 13.735 18.2299 14.4449L14.7226 21.7874C14.19 23.0162 13.092 23.9104 11.7781 24.1854V23.6147C11.7781 22.9787 11.5247 22.3689 11.0737 21.9192C10.6223 21.4693 10.0105 21.2167 9.37251 21.2167L2.40557 21.2171ZM2.40557 44.6019V23.6151H9.37226V44.6019H2.40557ZM12.0278 26.598C14.1938 26.2193 16.0214 24.7761 16.8872 22.7611L20.3657 15.4376C20.808 14.5066 21.1047 13.5136 21.2459 12.4929L21.6164 10.0709C21.6339 10.0541 21.6554 10.0424 21.6789 10.0374C22.5276 10.1712 23.2804 10.6553 23.7526 11.3705C24.3875 12.3969 24.3875 13.9556 23.7526 15.8742C22.8193 18.6749 22.5306 20.886 22.8867 22.4496V22.4492C22.9965 22.9313 23.268 23.3615 23.6566 23.6686C24.0449 23.9754 24.5271 24.141 25.0228 24.1377C28.2029 24.1377 30.1658 24.1664 33.2016 24.8044H33.2496L33.2499 24.8041C33.5704 24.862 33.8745 24.9898 34.1399 25.1784L34.2939 25.3079C35.5256 26.416 34.7463 27.8354 34.5826 28.0994V28.099C34.2647 28.5945 34.3544 29.2465 34.794 29.6386C35.2625 30.111 35.5501 30.7323 35.6071 31.394C35.5789 32.2865 35.1883 33.1296 34.5248 33.7297C34.1546 34.1198 34.0895 34.7076 34.3661 35.1683C34.4191 35.2593 35.6554 37.4034 33.2066 39.1968V39.1972C32.7857 39.5126 32.6149 40.0616 32.7831 40.5591C32.9129 40.9428 33.423 42.9092 30.7815 44.0651C29.9442 44.4141 29.0428 44.5837 28.1353 44.5639H17.9503C16.7314 44.5619 15.536 44.2304 14.4913 43.6048L11.7777 41.9836V26.6363L12.0278 26.598Z" fill="black"/>
<path d="M7.35666 40.8713C7.35666 41.6792 6.6999 42.3339 5.88944 42.3339C5.07897 42.3339 4.42188 41.6792 4.42188 40.8713C4.42188 40.0634 5.07897 39.4087 5.88944 39.4087C6.69991 39.4087 7.35666 40.0634 7.35666 40.8713Z" fill="black"/>
</svg>
