<svg width="16" height="20" viewBox="0 0 16 20" fill="none" xmlns="http://www.w3.org/2000/svg">
<path d="M6.97111 19.7079C7.10568 19.8916 7.31965 20 7.54732 20C7.77499 20 7.98896 19.8916 8.12353 19.7079L13.595 12.247H13.5949C14.4187 11.118 14.9243 9.78846 15.0587 8.39717C15.1932 7.00589 14.9515 5.60408 14.3592 4.33815C13.8117 3.12051 12.9427 2.07507 11.8458 1.3142C10.7487 0.553174 9.46518 0.105659 8.13288 0.0193719C7.74273 -0.00645731 7.35145 -0.00645731 6.96148 0.0193719C5.62918 0.10563 4.3457 0.553337 3.24891 1.31437C2.15196 2.07523 1.28318 3.12067 0.735662 4.33815C0.143329 5.60413 -0.0982252 7.00589 0.0361844 8.39717C0.170594 9.78846 0.676191 11.118 1.5 12.247L6.97111 19.7079ZM2.03106 4.94081C2.47237 3.9566 3.17328 3.11108 4.05884 2.49515C4.94419 1.87923 5.98073 1.51604 7.05695 1.44477C7.21878 1.43393 7.38316 1.42835 7.5474 1.42835C7.71164 1.42835 7.87601 1.43393 8.03704 1.44477C9.11342 1.51589 10.1501 1.87911 11.0356 2.49499C11.9213 3.11091 12.6224 3.9566 13.0637 4.94081C13.5483 5.97495 13.7462 7.12006 13.6369 8.25668C13.5276 9.39351 13.1149 10.4799 12.4422 11.4026L7.54748 18.0778L2.65233 11.4026C1.97951 10.4799 1.56701 9.39347 1.45779 8.25668C1.34841 7.12002 1.54644 5.97495 2.03098 4.94081H2.03106Z" fill="black"/>
<path d="M7.54775 11.4283C8.58968 11.4283 9.58892 11.0143 10.3257 10.2776C11.0625 9.54082 11.4764 8.54163 11.4764 7.49966C11.4764 6.45769 11.0624 5.45849 10.3257 4.72171C9.58892 3.98493 8.58972 3.57104 7.54775 3.57104C6.50578 3.57104 5.50659 3.98497 4.76981 4.72171C4.03302 5.45849 3.61914 6.45769 3.61914 7.49966C3.62026 8.5413 4.03466 9.53984 4.77111 10.2763C5.50757 11.0128 6.50615 11.4271 7.54775 11.4283ZM7.54775 4.99963C8.21086 4.99963 8.84671 5.26303 9.31549 5.73192C9.78439 6.20066 10.0478 6.83651 10.0478 7.49966C10.0478 8.16281 9.78439 8.79861 9.31549 9.26739C8.84675 9.73629 8.2109 9.99968 7.54775 9.99968C6.8846 9.99968 6.2488 9.73629 5.78002 9.26739C5.31112 8.79865 5.04773 8.16281 5.04773 7.49966C5.04852 6.83687 5.31224 6.20148 5.78084 5.73274C6.24958 5.26416 6.88497 5.00045 7.54775 4.99963Z" fill="black"/>
</svg>
