<svg width="38" height="50" viewBox="0 0 38 50" fill="none" xmlns="http://www.w3.org/2000/svg">
<path d="M33.5508 50H5.86456C4.83961 50 3.85644 49.593 3.13174 48.8683C2.40702 48.1436 2 47.1604 2 46.1355V24.6989C2 23.674 2.407 22.6911 3.13174 21.9664C3.85645 21.2417 4.83961 20.8344 5.86456 20.8344H33.5508C34.5758 20.8344 35.5586 21.2417 36.2833 21.9664C37.008 22.6912 37.4154 23.674 37.4154 24.6989V46.1355C37.4154 47.1604 37.008 48.1436 36.2833 48.8683C35.5586 49.593 34.5758 50 33.5508 50ZM5.86456 22.9182C5.39269 22.921 4.94139 23.1093 4.60801 23.4427C4.2746 23.7761 4.08592 24.2278 4.08313 24.6993V46.1358C4.08592 46.6077 4.2746 47.059 4.60801 47.3924C4.94142 47.7258 5.39272 47.9145 5.86456 47.9173H33.5508C34.0224 47.9145 34.474 47.7258 34.8074 47.3924C35.1408 47.059 35.3291 46.6077 35.3319 46.1358V24.6993C35.3291 24.2278 35.1408 23.7761 34.8074 23.4427C34.474 23.1093 34.0223 22.921 33.5508 22.9182H5.86456Z" fill="black"/>
<path d="M21.9892 41.2504H17.427C16.6538 41.2473 15.9246 40.8898 15.4493 40.2802C14.9736 39.6706 14.8041 38.876 14.9896 38.1255L16.0314 33.8965H16.031C14.7988 32.6678 14.2614 30.9049 14.599 29.1977C14.9366 27.4906 16.1046 26.0648 17.7116 25.3977C19.3191 24.7309 21.1532 24.9105 22.6005 25.8772C24.0475 26.8436 24.9166 28.4692 24.9163 30.2092C24.9201 31.5958 24.3642 32.9253 23.3744 33.8966L24.4162 38.1256C24.6013 38.8762 24.4322 39.6707 23.9565 40.2803C23.4811 40.8899 22.7519 41.2474 21.9787 41.2505L21.9892 41.2504ZM19.7079 27.0841C18.8315 27.0879 17.9969 27.4597 17.4078 28.1087C16.8188 28.7581 16.5293 29.6245 16.6102 30.4974C16.6911 31.37 17.1348 32.1687 17.8329 32.6984L18.3746 33.1151L16.9998 38.6252V38.6255C16.9667 38.7566 16.9977 38.8954 17.0832 39.0004C17.1606 39.1064 17.2851 39.1689 17.4166 39.1671H21.979H21.9787C22.1102 39.1689 22.2347 39.1064 22.3121 39.0004C22.3976 38.8954 22.4286 38.7566 22.3955 38.6255L21.0207 33.1155L21.5623 32.6987V32.6984C22.2588 32.1703 22.7021 31.3745 22.7847 30.5044C22.867 29.6339 22.5814 28.7689 21.9968 28.1188C21.4123 27.4691 20.5823 27.0939 19.7079 27.0841H19.7079Z" fill="black"/>
<path d="M3.04199 43.7503H36.3735V45.8334H3.04199V43.7503Z" fill="black"/>
<path d="M33.2486 22.9182H26.7384V12.5017C26.7028 10.8099 25.9973 9.20136 24.7766 8.02954C23.5559 6.85772 21.9203 6.21846 20.2285 6.25194C18.5367 6.21846 16.9007 6.85773 15.68 8.02954C14.4594 9.20134 13.7539 10.8099 13.7183 12.5017V22.9182H7.20801V12.5017C7.28194 9.11904 8.6941 5.90392 11.1346 3.56099C13.5756 1.2177 16.8455 -0.0618898 20.2289 0.00230377C23.6115 -0.0618675 26.8818 1.2177 29.3222 3.56099C31.7628 5.90392 33.1749 9.11913 33.2488 12.5017L33.2486 22.9182ZM28.9053 20.835H31.0822V12.5018C31.0191 9.68286 29.8416 7.00369 27.8074 5.05137C25.7727 3.09904 23.0476 2.03257 20.2285 2.08552C17.4092 2.0325 14.6839 3.09904 12.6496 5.05137C10.6154 7.00369 9.43755 9.68286 9.37479 12.5018V20.8347H11.5517V12.5018C11.6009 10.2475 12.5419 8.10436 14.1681 6.54264C15.7948 4.98057 17.9738 4.12712 20.2285 4.16899C22.4829 4.12714 24.6622 4.98055 26.2885 6.54264C27.9151 8.10436 28.8557 10.2475 28.9053 12.5018V20.835Z" fill="black"/>
</svg>
