<svg width="12" height="20" viewBox="0 0 12 20" fill="none" xmlns="http://www.w3.org/2000/svg">
<path d="M11.5403 11.9473C11.5403 12.2563 11.4888 12.5137 11.2828 12.7712C11.1798 12.9257 11.0253 13.1317 10.8193 13.2347C10.6648 13.3377 10.5103 13.4407 10.3043 13.5437C10.0468 13.6982 9.78936 13.8012 9.53186 13.9042C9.37737 13.9557 9.22287 14.0587 9.06838 14.1102C8.86238 14.2132 8.60489 14.2647 8.3989 14.3162C8.2444 14.3677 8.08991 14.4192 7.88391 14.4707C7.83241 14.4707 7.78091 14.5222 7.78091 14.5222C7.78091 14.5222 7.78091 14.5737 7.83241 14.6252C8.03841 14.8312 8.2444 15.0372 8.3989 15.1917C8.65639 15.4492 8.86238 15.6552 9.11987 15.9126C9.37737 16.1701 9.63486 16.4276 9.89235 16.6851C10.0983 16.8911 10.3558 17.1486 10.5618 17.3546C10.8708 17.6636 11.0768 18.0756 11.0768 18.5391C11.0768 18.8481 10.9738 19.1056 10.8193 19.363C10.7678 19.4145 10.7163 19.5175 10.6648 19.569C10.5103 19.672 10.4073 19.775 10.2528 19.878C10.1498 19.9295 9.99535 20.0325 9.89235 19.981C9.84085 19.981 9.84085 19.981 9.78936 19.981C9.42887 20.0325 9.11988 19.981 8.81089 19.775C8.55339 19.6205 8.3474 19.363 8.1414 19.1571C8.03841 19.0541 7.93541 18.9511 7.78091 18.8481C7.67792 18.7451 7.52342 18.5906 7.42043 18.4876C7.16293 18.2301 6.90544 17.9726 6.64795 17.7151C6.54495 17.6121 6.44195 17.5091 6.33896 17.4061C6.13296 17.2001 5.92697 16.9941 5.72097 16.8396C5.66948 16.7881 5.61798 16.7881 5.56648 16.8396C5.51498 16.8911 5.46348 16.9426 5.41198 17.0456C5.30899 17.1486 5.20599 17.2516 5.10299 17.3031C4.9485 17.4061 4.8455 17.5606 4.69101 17.6636C4.69101 17.7151 4.58801 17.8696 4.43351 17.9726C4.33052 18.0756 4.22752 18.1271 4.12452 18.2301C4.07302 18.3331 4.02153 18.4361 3.91853 18.4876C3.81553 18.5906 3.76403 18.6936 3.66104 18.7451C3.60954 18.7966 3.55804 18.8481 3.50654 18.8996C3.45504 18.9511 3.40354 19.0026 3.40354 19.0541C3.30055 19.1571 3.14605 19.3115 3.04305 19.4145C2.83706 19.6205 2.63107 19.8265 2.32208 19.878C2.11608 19.9295 1.91009 19.9295 1.75559 19.9295C1.6526 19.9295 1.6011 19.878 1.4981 19.878C1.24061 19.8265 1.03461 19.672 0.828619 19.5175C0.725622 19.363 0.571127 19.2085 0.519628 19.0541C0.416631 18.7451 0.365133 18.4361 0.46813 18.1271C0.519628 17.9726 0.571127 17.7666 0.674124 17.6121C0.777121 17.4576 0.983115 17.3031 1.08611 17.1486C1.18911 17.0456 1.29211 16.8911 1.4466 16.7881C1.5496 16.6851 1.6526 16.5821 1.75559 16.4791C1.80709 16.4276 1.85859 16.3761 1.85859 16.3246C1.96159 16.2216 2.06458 16.0671 2.21908 15.9641C2.42507 15.7582 2.63107 15.5522 2.83706 15.3977C2.99156 15.2432 3.19755 15.0372 3.35205 14.8827C3.45504 14.7797 3.55804 14.6767 3.66104 14.5737C3.71253 14.5222 3.71253 14.4707 3.60954 14.4192C3.45504 14.3677 3.30055 14.3677 3.19755 14.3162C2.99156 14.2647 2.78556 14.1617 2.52807 14.1102C2.32208 14.0587 2.16758 13.9557 1.96159 13.9042C1.80709 13.8527 1.6526 13.7497 1.4981 13.6467C1.4466 13.6467 1.3951 13.5952 1.3436 13.5952C1.08611 13.4407 0.880118 13.3377 0.622625 13.1832C0.365133 13.0287 0.210638 12.7712 0.107641 12.5137C0.00464362 12.2048 -0.0468549 11.8958 0.0561421 11.5868C0.107641 11.3808 0.210638 11.1748 0.365133 11.0203C0.725622 10.6598 1.18911 10.4023 1.75559 10.5053C1.96159 10.5568 2.11608 10.6598 2.32208 10.7113C2.57957 10.8143 2.83706 10.9688 3.09455 11.1233C3.30055 11.2263 3.50654 11.2778 3.66104 11.3808C3.86703 11.4323 4.07302 11.5353 4.33052 11.5868C4.48501 11.5868 4.58801 11.6898 4.7425 11.6898C5.25749 11.6898 5.77247 11.7928 6.28746 11.7413C6.49345 11.6898 6.69945 11.6898 6.90544 11.6898C7.11143 11.6383 7.31743 11.5868 7.52342 11.5353C7.62642 11.4838 7.78091 11.4838 7.88391 11.4323C7.88391 11.4323 7.88391 11.4323 7.93541 11.4323C8.1929 11.3293 8.3989 11.2263 8.65639 11.1748C8.70789 11.1233 8.81088 11.0718 8.86238 11.0718C9.01688 11.0203 9.17137 10.9173 9.32587 10.8143C9.53186 10.7113 9.73786 10.6083 9.94385 10.6083C10.2013 10.5568 10.4588 10.6083 10.7163 10.7113C10.8193 10.7628 10.9223 10.8658 11.0253 10.9173C11.3343 11.1748 11.5403 11.4838 11.5403 11.9473Z" fill="white"/>
<path d="M10.9215 5.14985C10.9215 5.30434 10.87 5.51034 10.87 5.66483C10.87 5.92233 10.8185 6.17982 10.7155 6.43731C10.6125 6.7463 10.5095 7.00379 10.4065 7.31278C10.355 7.46728 10.252 7.62178 10.149 7.72477C10.046 7.87927 9.94301 8.08526 9.84001 8.23976C9.73701 8.34275 9.63402 8.49725 9.53102 8.60025C9.42802 8.70324 9.37652 8.80624 9.27353 8.85774C9.22203 8.90924 9.11903 8.96074 9.06753 9.06373C8.96454 9.16673 8.81004 9.26973 8.65554 9.37272C8.50105 9.47572 8.29506 9.57872 8.14056 9.68172C8.03756 9.73321 7.93457 9.83621 7.78007 9.83621C7.57408 9.93921 7.36808 9.99071 7.11059 10.0422C6.9046 10.0937 6.6986 10.1452 6.54411 10.1967C6.44111 10.1967 6.33811 10.1967 6.18362 10.1967C5.97762 10.1967 5.82313 10.1967 5.61713 10.1967C5.46264 10.1967 5.30814 10.1967 5.15365 10.1967C4.94765 10.1967 4.74166 10.1452 4.53567 10.0937C4.43267 10.0422 4.27817 9.99071 4.17518 9.99071C4.12368 9.99071 4.07218 9.93921 3.96918 9.93921C3.60869 9.83621 3.2997 9.68172 2.99071 9.47572C2.88771 9.42422 2.83622 9.37272 2.78472 9.32123L2.73322 9.26973C2.47573 9.16673 2.32123 9.01223 2.16674 8.80624C2.06374 8.70324 1.90924 8.60025 1.80625 8.44575C1.65175 8.29126 1.49725 8.08526 1.39426 7.87927C1.29126 7.67327 1.13677 7.41578 1.03377 7.15829C0.98227 7.00379 0.930771 6.8493 0.879273 6.6948C0.724777 6.33431 0.673279 5.97382 0.673279 5.61333C0.62178 5.30434 0.673279 4.99535 0.673279 4.68636C0.673279 4.53187 0.673279 4.32587 0.724777 4.17138C0.776276 3.91388 0.776276 3.65639 0.930771 3.4504C0.930771 3.3989 0.930771 3.2959 0.98227 3.19291C1.08527 2.93541 1.18826 2.72942 1.34276 2.47193C1.44576 2.26593 1.60025 2.05994 1.75475 1.85395C1.85774 1.69945 2.01224 1.49346 2.21823 1.33896C2.47573 1.13297 2.78472 0.926973 3.04221 0.720979C3.09371 0.66948 3.1967 0.66948 3.2997 0.617982C3.4027 0.514985 3.55719 0.463486 3.66019 0.411988C3.96918 0.257492 4.32967 0.154495 4.69016 0.0514985C4.84466 0 5.05065 0 5.20515 0C5.30814 0 5.41114 0 5.46264 0C5.77163 0 6.08062 0 6.38961 0.0514985C6.54411 0.102997 6.6471 0.102997 6.8016 0.102997C7.11059 0.154495 7.36808 0.257492 7.62558 0.360489C7.83157 0.463486 8.03756 0.514985 8.24356 0.66948C8.50105 0.823976 8.75854 1.02997 9.01604 1.18447C9.11903 1.28746 9.22203 1.33896 9.32503 1.44196C9.37652 1.49346 9.42802 1.54495 9.47952 1.64795C9.58252 1.75095 9.73701 1.85395 9.78851 2.00844C10.046 2.26593 10.252 2.52343 10.355 2.88392C10.4065 2.98691 10.458 3.03841 10.458 3.14141C10.5095 3.2959 10.561 3.5019 10.6125 3.65639C10.7155 3.75939 10.767 3.86239 10.767 4.01688C10.87 4.37737 10.9215 4.78936 10.9215 5.14985ZM5.72013 7.26129C6.95609 7.31278 7.93457 6.28281 7.93457 5.09835C7.93457 3.86239 7.00759 2.88392 5.66863 2.93541C4.53567 2.93541 3.5057 3.86239 3.55719 5.20135C3.55719 6.33431 4.48417 7.26129 5.72013 7.26129Z" fill="white"/>
</svg>
