<svg width="18" height="18" viewBox="0 0 18 18" fill="none" xmlns="http://www.w3.org/2000/svg">
<path d="M6.31341 17.5856C7.28851 16.2483 7.61044 14.6874 8.00235 13.1171C8.6322 13.9232 9.45334 14.1842 10.3911 14.1189C11.3802 14.049 12.2387 13.667 12.9619 12.9913C13.9976 12.0268 14.5108 10.806 14.6928 9.42678C14.8514 8.21064 14.6975 7.0411 14.0583 5.97406C13.2511 4.62746 12.0474 3.81204 10.5218 3.50451C8.80949 3.1597 7.16254 3.37404 5.65556 4.30595C3.4954 5.64324 2.64626 8.52283 3.73334 10.792C4.01794 11.3838 4.39586 11.8963 4.98838 12.2178C5.26365 12.3669 5.33364 12.3343 5.40362 12.0361C5.4736 11.7519 5.53892 11.463 5.61357 11.1788C5.64623 11.0623 5.6369 10.9691 5.56225 10.8712C4.19524 9.04004 4.99305 6.10919 7.34917 5.2099C8.41292 4.80452 9.49533 4.78588 10.5544 5.21922C11.8235 5.74109 12.5326 6.71493 12.6866 8.0662C12.8172 9.22642 12.6306 10.34 12.0287 11.3605C11.6275 12.0361 11.0676 12.5114 10.2698 12.6605C9.46267 12.8143 8.75817 12.4322 8.56688 11.7333C8.48757 11.449 8.52956 11.1648 8.60421 10.8852C8.80483 10.1071 9.10342 9.35223 9.25272 8.56011C9.29471 8.33645 9.31338 8.11279 9.29005 7.88913C9.20607 7.00848 8.41292 6.55185 7.6151 6.93859C6.96659 7.25543 6.69599 7.83788 6.57935 8.50419C6.4767 9.08197 6.55135 9.64578 6.75664 10.1956C6.79396 10.2935 6.79396 10.382 6.76597 10.4845C6.41139 11.9755 6.05214 13.4666 5.72088 14.967C5.56225 15.6845 5.62757 16.4207 5.69289 17.1476C5.71155 17.3527 5.66956 17.3713 5.49693 17.2921C2.67426 16.02 0.84535 13.886 0.2015 10.8526C-0.829592 5.98804 2.1937 1.34248 7.0459 0.224193C11.8981 -0.898756 16.8716 2.31633 17.8234 7.19486C18.7752 12.0687 15.7939 16.663 10.9557 17.7767C9.41135 18.1308 7.87638 18.0562 6.31341 17.5856Z" fill="white"/>
</svg>
