<svg width="31" height="30" viewBox="0 0 31 30" fill="none" xmlns="http://www.w3.org/2000/svg">
<path fill-rule="evenodd" clip-rule="evenodd" d="M3.99937 0.000208927C1.91833 0.000208927 0.231323 1.67913 0.231323 3.75018V26.25C0.231323 28.3211 1.91833 30 3.99937 30H21.5838C23.6648 30 25.3518 28.3211 25.3518 26.25V18.5176L30.0078 13.8837C30.4984 13.3957 30.4984 12.6042 30.0078 12.1161L26.9934 9.11607C26.7579 8.8817 26.4385 8.74987 26.1054 8.74987C25.8321 8.74987 25.568 8.83859 25.3518 8.99994V3.74997C25.3518 1.67892 23.6648 0 21.5838 0L3.99937 0.000208927ZM22.8396 11.4826V3.75018C22.8396 3.05981 22.2774 2.50026 21.5837 2.50026H3.99926C3.30556 2.50026 2.74332 3.05981 2.74332 3.75018V26.25C2.74332 26.9404 3.30556 27.4999 3.99926 27.4999H21.5837C22.2774 27.4999 22.8396 26.9404 22.8396 26.25V21.0178L20.4621 23.384C20.2266 23.6183 19.907 23.75 19.5739 23.75H16.5595C15.8658 23.75 15.3035 23.1904 15.3035 22.5001V19.5001C15.3035 19.1686 15.436 18.8505 15.6715 18.6162L22.8396 11.4826ZM26.6076 13.7326L25.3694 12.5003L26.1053 11.7681L27.3434 13.0004L26.6076 13.7326Z" fill="white"/>
</svg>
