<svg width="21" height="21" viewBox="0 0 21 21" fill="none" xmlns="http://www.w3.org/2000/svg">
<path fill-rule="evenodd" clip-rule="evenodd" d="M10.5 1.5C5.52944 1.5 1.5 5.52944 1.5 10.5C1.5 15.4706 5.52944 19.5 10.5 19.5C15.4706 19.5 19.5 15.4706 19.5 10.5C19.5 5.52944 15.4706 1.5 10.5 1.5ZM0.5 10.5C0.5 4.97715 4.97715 0.5 10.5 0.5C16.0228 0.5 20.5 4.97715 20.5 10.5C20.5 16.0228 16.0228 20.5 10.5 20.5C4.97715 20.5 0.5 16.0228 0.5 10.5Z" fill="#9A9A9A"/>
<path d="M11.7 11.5H9.77999C9.77999 11.244 9.84398 11 9.97198 10.768C10.108 10.528 10.268 10.32 10.452 10.144C10.644 9.96001 10.832 9.78401 11.016 9.61601C11.208 9.44801 11.368 9.26801 11.496 9.07601C11.632 8.88401 11.7 8.69201 11.7 8.50001C11.7 8.03601 11.404 7.80401 10.812 7.80401C10.236 7.80401 9.80399 8.14001 9.51599 8.81201L7.85999 7.86401C8.12399 7.26401 8.52399 6.79201 9.05999 6.44801C9.60399 6.10401 10.212 5.93201 10.884 5.93201C11.62 5.93201 12.26 6.14801 12.804 6.58001C13.348 7.01201 13.62 7.59601 13.62 8.33201C13.62 8.66001 13.552 8.96801 13.416 9.25601C13.288 9.54401 13.128 9.78801 12.936 9.98801C12.752 10.188 12.564 10.372 12.372 10.54C12.188 10.708 12.028 10.876 11.892 11.044C11.764 11.204 11.7 11.356 11.7 11.5ZM11.88 13.528C11.88 13.84 11.768 14.108 11.544 14.332C11.32 14.556 11.052 14.668 10.74 14.668C10.428 14.668 10.16 14.556 9.93599 14.332C9.71199 14.108 9.59999 13.84 9.59999 13.528C9.59999 13.216 9.71199 12.948 9.93599 12.724C10.16 12.5 10.428 12.388 10.74 12.388C11.052 12.388 11.32 12.5 11.544 12.724C11.768 12.948 11.88 13.216 11.88 13.528Z" fill="#9A9A9A"/>
</svg>
