<svg width="31" height="30" viewBox="0 0 31 30" fill="none" xmlns="http://www.w3.org/2000/svg">
<path d="M29.339 16.5228C29.6278 15.83 29.5988 15.0451 29.2587 14.3757C28.9187 13.706 28.3022 13.2194 27.572 13.0442L26.749 10.153L29.0196 10.9034C29.2126 10.9737 29.4259 10.963 29.6111 10.8732C29.7962 10.7838 29.9368 10.6229 30.0012 10.4275C30.0655 10.232 30.0476 10.0191 29.9523 9.83719C29.8566 9.65525 29.6913 9.5194 29.4939 9.4614L25.8758 8.26528L25.8635 8.26131L16.8573 5.2824C16.7564 5.22043 16.6428 5.18309 16.5248 5.17316L15.7788 4.92607V3.89917C15.7788 3.47969 15.4392 3.13964 15.0197 3.13964C14.6002 3.13964 14.2606 3.47969 14.2606 3.89917V4.42393L4.65722 1.24875L1.01964 0.0459181C0.826585 -0.0243939 0.613262 -0.0136688 0.428149 0.0761084C0.243036 0.165885 0.102415 0.326764 0.0380629 0.521813C-0.0262899 0.717258 -0.00841428 0.930173 0.0869235 1.11211C0.182659 1.29445 0.34791 1.42991 0.545338 1.4879L3.48215 2.45876L1.69814 8.64458H1.33308C1.31043 8.64458 1.28581 8.64458 1.26475 8.64776H1.24767C1.22662 8.65014 1.20596 8.65292 1.18491 8.65729L1.16783 8.66127C1.15154 8.66524 1.13605 8.66881 1.12055 8.67358L1.10069 8.67914C1.08162 8.6855 1.06375 8.69185 1.04548 8.6994L1.02522 8.70814C1.01092 8.71489 0.996615 8.72125 0.982314 8.72919L0.967219 8.73674C0.949739 8.74667 0.932659 8.757 0.915577 8.76812L0.900879 8.77845C0.884592 8.78918 0.8691 8.80109 0.853608 8.81341L0.848841 8.81659C0.832157 8.83049 0.816664 8.84519 0.801569 8.86028L0.791241 8.87061L0.790446 8.87101C0.775351 8.8861 0.761051 8.90199 0.747942 8.91868C0.734832 8.93496 0.721724 8.95204 0.709807 8.96952L0.699081 8.98502L0.690342 8.99773C0.134606 9.88794 -0.083882 10.9478 0.0742211 11.9854C0.232721 13.0226 0.75748 13.9692 1.55356 14.6528C2.34964 15.3364 3.36462 15.7127 4.4141 15.7127C5.46317 15.7127 6.47818 15.3365 7.27423 14.6528C8.0703 13.9692 8.59503 13.0226 8.75357 11.9854C8.91167 10.9478 8.69319 9.88795 8.13745 8.99773L8.12871 8.98502L8.11799 8.96952C8.10607 8.95204 8.09336 8.93496 8.07985 8.91868C8.06674 8.90199 8.05244 8.8861 8.03735 8.87101L8.02702 8.86068C8.01192 8.84559 7.99603 8.83089 7.97975 8.81698L7.97498 8.81381C7.95988 8.80149 7.94399 8.78957 7.92771 8.77885L7.91301 8.76852C7.89593 8.7578 7.87885 8.74707 7.86137 8.73714L7.84627 8.72959C7.83197 8.72204 7.81767 8.71529 7.80337 8.70854L7.78311 8.6998C7.76524 8.69225 7.74696 8.6855 7.72789 8.67954L7.70803 8.67398C7.69254 8.66921 7.67665 8.66524 7.66076 8.66166L7.64368 8.65769C7.62263 8.65332 7.60197 8.65054 7.58092 8.64816H7.56383C7.54119 8.64816 7.51656 8.64498 7.49551 8.64498H7.13045L5.54108 3.13959L12.8889 5.56956C12.7224 6.10623 12.7653 6.68585 13.0088 7.19188C13.2519 7.69836 13.6778 8.09401 14.2006 8.29943L13.1689 26.2036H7.52133C7.10224 26.2036 6.76221 26.5437 6.76221 26.9631V29.2409C6.76221 29.4423 6.84205 29.6353 6.98466 29.7779C7.12687 29.9201 7.31994 30 7.52133 30H22.5181C22.7195 30 22.9125 29.9202 23.0548 29.7779C23.1974 29.6353 23.2772 29.4423 23.2772 29.2409V26.9631C23.2772 26.7617 23.1974 26.5683 23.0548 26.4261C22.9125 26.2839 22.7195 26.2036 22.5181 26.2036H16.8705L15.8389 8.29943C16.4371 8.06149 16.9039 7.57725 17.1204 6.97071L24.6926 9.47451L23.3297 14.2084C22.6329 14.6681 22.2048 15.4387 22.1821 16.2733C22.0681 16.3357 21.972 16.4263 21.9028 16.5363C21.3471 17.4261 21.1286 18.486 21.2871 19.5236C21.4452 20.5611 21.97 21.5074 22.766 22.191C23.5625 22.875 24.5771 23.2508 25.6266 23.2508C26.6761 23.2508 27.6907 22.875 28.4867 22.191C29.2828 21.5073 29.8075 20.5611 29.9661 19.5236C30.1246 18.486 29.9057 17.4261 29.3499 16.5363L29.339 16.5228ZM4.41284 14.1974C3.44159 14.197 2.5367 13.706 2.00677 12.892C1.47686 12.0781 1.39423 11.0516 1.78709 10.1634H7.03866C7.43153 11.0516 7.3489 12.0781 6.81898 12.892C6.28946 13.706 5.38418 14.197 4.41291 14.1974H4.41284ZM3.27876 8.64468L4.41284 4.70924L5.54693 8.64468H3.27876ZM21.7585 28.4821H8.28107V27.7225H21.7585V28.4821ZM15.0197 20.4618L15.3518 26.2039H14.6876L15.0197 20.4618ZM15.0455 6.93653H14.9939C14.6109 6.92263 14.3074 6.60801 14.3078 6.22468C14.3082 6.1639 14.3158 6.10392 14.3313 6.04513L15.6795 6.49123C15.5743 6.75182 15.326 6.9262 15.0455 6.93653H15.0455ZM27.7898 16.18H26.167C25.9176 15.8681 25.8691 15.4411 26.0423 15.0812C26.2151 14.7217 26.5794 14.4929 26.9786 14.4929C27.3778 14.4929 27.7417 14.7217 27.9145 15.0812C28.0877 15.4411 28.0392 15.8681 27.7898 16.18H27.7898ZM25.0889 13.8073L25.0265 13.7997L25.6212 11.7392L26.0256 13.1585C25.6685 13.3023 25.3483 13.5248 25.0893 13.8092L25.0889 13.8073ZM23.7125 16.18H23.7129C23.7752 15.7899 24.0529 15.4685 24.4299 15.3505C24.4255 15.4105 24.4227 15.4705 24.4227 15.5313C24.4227 15.7502 24.4509 15.9683 24.5065 16.18H23.7125ZM25.6271 21.7327H25.6279C24.6567 21.7323 23.7514 21.2413 23.2215 20.4273C22.6919 19.6134 22.6093 18.5869 23.0018 17.6987H28.2517C28.6446 18.5869 28.562 19.6134 28.032 20.4273C27.5021 21.2413 26.5972 21.7323 25.626 21.7327H25.6271Z" fill="white"/>
</svg>
