<svg width="16" height="22" viewBox="0 0 16 22" fill="none" xmlns="http://www.w3.org/2000/svg">
<path d="M6.1875 2.75C5.80784 2.75 5.5 3.05784 5.5 3.4375C5.5 3.81716 5.80784 4.125 6.1875 4.125H8.9375C9.31716 4.125 9.625 3.81716 9.625 3.4375C9.625 3.05784 9.31716 2.75 8.9375 2.75H6.1875Z" fill="black"/>
<path fill-rule="evenodd" clip-rule="evenodd" d="M11.6875 0C13.5859 0 15.125 1.53906 15.125 3.4375V18.5625C15.125 20.4609 13.5859 22 11.6875 22H3.4375C1.53906 22 0 20.4609 0 18.5625V3.4375C0 1.53906 1.53906 0 3.4375 0H11.6875ZM13.75 3.4375C13.75 2.29837 12.8266 1.375 11.6875 1.375H3.4375C2.29837 1.375 1.375 2.29837 1.375 3.4375V18.5625C1.375 19.7016 2.29837 20.625 3.4375 20.625H11.6875C12.8266 20.625 13.75 19.7016 13.75 18.5625V3.4375Z" fill="black"/>
</svg>
