<svg width="21" height="20" viewBox="0 0 21 20" fill="none" xmlns="http://www.w3.org/2000/svg">
<path d="M4.95404 20C4.66468 20 4.37969 19.9088 4.13855 19.7307C3.73519 19.4309 3.54228 18.9444 3.62558 18.4579L4.52438 12.8975L0.398702 8.99218C0.0260318 8.62294 -0.0967301 8.07124 0.0786439 7.58471C0.249634 7.1199 0.652994 6.79844 1.14404 6.73762L6.72971 5.85143L9.19371 0.738488C9.4217 0.282363 9.88206 0 10.3906 0C10.8992 0 11.3552 0.278019 11.5832 0.7298L14.1919 5.76021L19.817 6.51607C20.3212 6.57255 20.7421 6.90269 20.9175 7.38054C21.0972 7.87142 20.9788 8.40573 20.6062 8.77498L16.555 12.7628L17.5941 18.2971C17.6862 18.801 17.4845 19.3006 17.0724 19.609C16.6603 19.9175 16.1166 19.9652 15.6606 19.7394L15.6475 19.735L10.5836 17.146L5.58101 19.8566L5.56347 19.8653C5.37056 19.9522 5.16011 20 4.95404 20ZM6.57187 12.8975L5.8353 17.437L9.94782 15.2085L9.96536 15.1998C10.3468 15.0087 10.8028 15.0087 11.1886 15.1998L11.1974 15.2042L15.3625 17.3328L14.5119 12.7932C14.4199 12.3719 14.5602 11.9157 14.8846 11.5943L18.2123 8.31885L13.6175 7.702C13.1659 7.67159 12.7801 7.41095 12.5653 6.98957L10.4169 2.84535L8.40014 7.03301C8.22039 7.38488 7.88279 7.65421 7.49697 7.74978L7.45312 7.75847L2.79694 8.49696L6.19482 11.7159C6.51487 12.0287 6.65517 12.4761 6.57187 12.8975Z" fill="#4CC35D"/>
</svg>
