<svg width="48" height="46" viewBox="0 0 48 46" fill="none" xmlns="http://www.w3.org/2000/svg">
<path d="M30.4311 33.0877C30.1838 33.0877 29.9365 33.0072 29.6891 32.8456L23.9995 28.8105L18.3099 32.8456C17.8975 33.1682 17.3206 33.1682 16.826 32.8456C16.4136 32.523 16.2485 31.9579 16.4136 31.4737L18.5573 24.937L12.8677 20.902C12.4559 20.5788 12.2908 20.0142 12.4558 19.5301C12.6209 19.046 13.1156 18.7229 13.6102 18.7229H20.6193L22.763 12.1862C22.9281 11.702 23.4227 11.3789 23.9173 11.3789C24.412 11.3789 24.9066 11.7015 25.0717 12.1862L27.2154 18.7229H34.2245C34.7191 18.7229 35.2138 19.0454 35.3788 19.5301C35.5439 20.0142 35.3788 20.5794 34.9664 20.902L29.2768 24.937L31.4205 31.4737C31.5856 31.9579 31.4205 32.523 31.0081 32.8456C30.9259 33.0072 30.6786 33.0877 30.4312 33.0877H30.4311ZM23.9995 26.0668C24.2469 26.0668 24.4942 26.1473 24.7415 26.3088L28.1224 28.73L26.8029 24.8565C26.6379 24.3723 26.8029 23.8072 27.2153 23.4846L30.5962 21.0634H26.4734C25.9787 21.0634 25.4841 20.7409 25.319 20.2562L23.9996 16.4632L22.6801 20.3367C22.5151 20.8208 22.0204 21.144 21.5258 21.144H17.403L20.7838 23.5652C21.1962 23.8877 21.3613 24.4529 21.1962 24.937L19.8768 28.8106L23.2576 26.3894C23.505 26.1473 23.7523 26.0668 23.9996 26.0668L23.9995 26.0668Z" fill="black"/>
<path d="M24.0827 40.7545C24.0827 40.1088 24.5773 39.5442 25.2371 39.4632C25.8968 39.3827 26.4737 39.9473 26.5565 40.593C26.6387 41.2386 26.0618 41.8033 25.4021 41.8843H25.3199C24.6602 41.8843 24.0827 41.4002 24.0827 40.7545V40.7545ZM20.1249 41.5618C19.4652 41.4002 19.0528 40.7545 19.1356 40.1094C19.3007 39.4637 19.9604 39.0601 20.6196 39.1412C21.2793 39.3027 21.6917 39.9484 21.6089 40.5935C21.5266 41.1587 20.9491 41.5618 20.3723 41.5618C20.29 41.6423 20.2072 41.5618 20.1249 41.5618H20.1249ZM28.948 40.1089C28.7007 39.4632 29.0303 38.8175 29.69 38.5754C30.3497 38.3333 31.0095 38.6559 31.2568 39.3016C31.5042 39.9472 31.1746 40.5929 30.5149 40.835C30.3498 40.9155 30.2675 40.9155 30.1025 40.9155C29.6072 40.9161 29.1126 40.593 28.9481 40.1089H28.948ZM15.1774 39.8668C14.6 39.5442 14.3526 38.8175 14.6828 38.2529C15.0124 37.6877 15.7549 37.4457 16.3318 37.7688C16.9092 38.0913 17.1566 38.8181 16.8264 39.3827C16.5791 39.7863 16.1667 40.0284 15.7543 40.0284C15.5076 40.0284 15.3425 39.9479 15.1774 39.8668H15.1774ZM33.4827 38.1723C33.0703 37.6072 33.2354 36.881 33.73 36.4773C34.3075 36.0737 35.0495 36.2353 35.4619 36.7194C35.8743 37.2846 35.7092 38.0107 35.1323 38.4144C34.885 38.576 34.6377 38.6565 34.3903 38.6565C34.1424 38.6565 33.73 38.4949 33.4827 38.1723H33.4827ZM10.8073 36.881C10.3126 36.3969 10.3126 35.6707 10.725 35.186C11.2197 34.7018 11.9616 34.7018 12.4569 35.1055C12.9515 35.5896 12.9515 36.3158 12.5391 36.8005C12.2918 37.0425 11.9617 37.2041 11.6321 37.2041C11.3848 37.2035 11.0546 37.123 10.8073 36.881H10.8073ZM37.3581 35.1055C36.7807 34.7019 36.6984 33.8953 37.1931 33.4105C37.6055 32.9264 38.4297 32.7648 38.9249 33.249C39.4196 33.6526 39.5024 34.4593 39.09 34.944C38.8427 35.2665 38.5125 35.3476 38.1007 35.3476C37.8528 35.3476 37.5232 35.2671 37.3582 35.1055H37.3581ZM7.50901 32.9265C7.17944 32.3613 7.34394 31.6351 7.92141 31.2314C8.49888 30.9089 9.24084 31.0699 9.65329 31.6351C9.98286 32.2002 9.81836 32.9264 9.24088 33.3301C9.07581 33.4106 8.82849 33.4916 8.58116 33.4916C8.08651 33.4916 7.67412 33.3301 7.50906 32.9265H7.50901ZM40.1616 31.151C39.5019 30.909 39.2546 30.1828 39.5019 29.5371C39.7492 28.8915 40.4912 28.6494 41.1509 28.8914C41.8106 29.1335 42.0579 29.8597 41.8106 30.5053C41.6455 30.9895 41.1509 31.2315 40.6563 31.2315C40.4912 31.2321 40.3261 31.2321 40.1616 31.151H40.1616ZM5.36515 28.1652C5.20008 27.5195 5.53023 26.8738 6.18995 26.7129C6.84967 26.5513 7.50938 26.8744 7.75676 27.5201C7.92184 28.1658 7.59169 28.8115 6.93197 29.0536C6.84972 29.0536 6.68464 29.1341 6.60239 29.1341C6.02492 29.053 5.5297 28.7305 5.36521 28.1653L5.36515 28.1652ZM41.8108 26.5513C41.151 26.4708 40.6564 25.8251 40.7387 25.1795C40.8209 24.5338 41.4806 24.0497 42.1403 24.1302C42.8 24.2107 43.2947 24.8563 43.2124 25.502C43.1302 26.1477 42.5527 26.5513 41.9758 26.5513C41.893 26.6318 41.893 26.5513 41.8108 26.5513ZM4.62305 23.0808C4.62305 22.3547 5.20052 21.7895 5.85965 21.7895C6.51938 21.7895 7.09626 22.3547 7.09626 22.9998C7.09626 23.6455 6.51879 24.2101 5.85965 24.2101C5.20051 24.2917 4.62305 23.7265 4.62305 23.0808ZM40.7388 20.7408C40.6566 20.0951 41.1512 19.4494 41.8109 19.3689C42.4707 19.2884 43.1304 19.7726 43.2126 20.4182C43.2949 21.0639 42.8002 21.7096 42.1405 21.7901H41.9754C41.3163 21.7901 40.8211 21.3054 40.7388 20.7408ZM6.18971 19.3689C5.52999 19.2074 5.11761 18.5617 5.36492 17.8355C5.52999 17.1898 6.18971 16.7862 6.84883 17.0282C7.50856 17.1898 7.92094 17.916 7.67363 18.5617C7.50856 19.1269 7.01391 19.4494 6.51927 19.4494C6.43703 19.4494 6.27252 19.3689 6.1897 19.3689L6.18971 19.3689ZM39.502 16.3825C39.2547 15.7368 39.502 15.0912 40.1617 14.7686C40.8214 14.5266 41.5634 14.7686 41.8107 15.4143C42.058 16.06 41.8107 16.7057 41.151 17.0282C40.9859 17.1087 40.8214 17.1087 40.6563 17.1087C40.1617 17.1093 39.6664 16.8672 39.502 16.3825H39.502ZM7.83884 14.7686C7.26137 14.4461 7.09686 13.7193 7.42644 13.0736C7.75601 12.5084 8.5808 12.3474 9.15831 12.67C9.73578 12.9926 9.90028 13.7998 9.57071 14.365C9.32339 14.7686 8.91099 14.9302 8.4986 14.9302C8.25128 15.0107 8.08678 14.9302 7.83888 14.7686H7.83884ZM37.1108 12.509C36.6984 12.0249 36.7812 11.2176 37.2758 10.814C37.7705 10.4103 38.5953 10.4914 39.0077 10.9755C39.4202 11.4597 39.3373 12.2669 38.8426 12.6706C38.5953 12.8321 38.348 12.9126 38.0178 12.9126C37.6883 12.9931 37.3581 12.8321 37.1108 12.509H37.1108ZM10.7248 10.8145C10.2302 10.3304 10.3124 9.60425 10.8071 9.11952C11.3017 8.6354 12.1265 8.7159 12.5389 9.20002C13.0336 9.68415 12.9513 10.4914 12.4567 10.895C12.2093 11.1371 11.8792 11.2176 11.6319 11.2176C11.3023 11.2176 10.9722 11.1371 10.7248 10.8145L10.7248 10.8145ZM33.7301 9.44269C33.1526 9.03907 33.0703 8.31289 33.4005 7.74767C33.8129 7.18248 34.5548 7.10198 35.1324 7.4251C35.7098 7.82873 35.7921 8.5549 35.4619 9.12013C35.2146 9.44269 34.8022 9.60425 34.4726 9.60425C34.2253 9.68475 33.978 9.60369 33.7301 9.44269H33.7301ZM14.5178 7.82822C14.1882 7.26304 14.4355 6.53687 15.0124 6.21433C15.5899 5.89177 16.3319 6.13383 16.6614 6.69846C16.991 7.26364 16.7437 7.98982 16.1668 8.31235C16.0017 8.39285 15.7544 8.47391 15.5893 8.47391C15.1769 8.47391 14.7651 8.23185 14.5178 7.82822H14.5178ZM29.6073 7.42516C28.9475 7.1831 28.618 6.53741 28.8653 5.89169C29.1126 5.246 29.7723 4.92344 30.4321 5.1655C31.0918 5.40756 31.4214 6.05325 31.1741 6.69898C31.009 7.1831 30.5143 7.50622 30.0197 7.50622C29.9375 7.50566 29.7724 7.42516 29.6073 7.42516H29.6073ZM19.0529 5.89169C18.8878 5.246 19.3002 4.60033 20.0422 4.43934C20.7019 4.27778 21.3616 4.7619 21.5261 5.40759C21.6912 6.05328 21.1965 6.69895 20.5368 6.85993H20.2895C19.7126 6.85993 19.2179 6.45631 19.0529 5.89169H19.0529ZM25.1548 6.45631C24.4951 6.37581 23.9182 5.81062 24.0004 5.16495C24.0004 4.51927 24.6601 4.03516 25.3198 4.03516C25.9796 4.03516 26.5565 4.68084 26.4742 5.32651C26.3914 5.9722 25.8967 6.45631 25.1548 6.45631Z" fill="black"/>
<path d="M24 46C11.0541 46 0.5 35.6702 0.5 23C0.5 10.3298 11.0544 0 24 0C36.9456 0 47.5 10.3298 47.5 23C47.5 35.6702 36.9456 46 24 46ZM24 2.42105C12.3735 2.42105 2.97368 11.6211 2.97368 23C2.97368 34.3789 12.3737 43.5789 24 43.5789C35.6263 43.5789 45.0263 34.3789 45.0263 23C45.0263 11.6211 35.6263 2.42105 24 2.42105Z" fill="black"/>
</svg>
