<svg width="22" height="20" viewBox="0 0 22 20" fill="none" xmlns="http://www.w3.org/2000/svg">
<path d="M12.1855 15.1201C12.2166 15.152 12.2478 15.1519 12.2478 15.1838C13.7745 16.3286 15.3012 17.4735 16.7967 18.6502C17.0148 18.8092 17.2329 18.9046 17.4822 18.9682C17.9807 19.0954 18.3234 18.9364 18.5415 18.4912C18.635 18.3004 18.6973 18.0777 18.7285 17.8869C19.0089 16.6148 19.2582 15.311 19.5386 14.0389C19.9748 11.9081 20.411 9.80919 20.8783 7.67845C21.2211 5.99294 21.595 4.30743 21.9377 2.59011C22 2.30389 22.0312 2.01768 21.9377 1.69965C21.8131 1.22262 21.408 0.936403 20.9718 1.00001C20.8472 1.03181 20.6914 1.06361 20.5668 1.09541C17.7003 2.24029 14.8027 3.38517 11.9362 4.49824C8.97626 5.67492 6.01632 6.8198 3.02522 7.99647C2.55786 8.18729 2.05935 8.3781 1.59199 8.60071C1.40505 8.69612 1.2181 8.82333 1.09347 8.98234C0.875373 9.30036 0.968844 9.58658 1.28042 9.74559C1.4362 9.80919 1.59199 9.8728 1.74778 9.9046C3.27448 10.3816 4.83235 10.8587 6.35905 11.3357C6.45252 11.3675 6.51484 11.3675 6.60831 11.3039C10.0356 9.17315 13.4006 7.01061 16.7656 4.84806C17.0772 4.65725 17.3576 4.46644 17.6691 4.27563C17.8249 4.18022 17.9807 4.11662 18.1677 4.14842C18.3234 4.18022 18.3546 4.27563 18.2611 4.40283C18.23 4.46644 18.1677 4.49824 18.1053 4.56184C16.2359 6.31096 14.3353 8.06008 12.4659 9.80919C11.4065 10.7951 10.3472 11.7809 9.25668 12.7986C9.22552 12.8304 9.19436 12.8622 9.19436 12.894C9.13205 13.6254 9.06973 14.3569 9.03858 15.0883C8.97626 15.8834 8.91395 16.6466 8.85163 17.4417C8.85163 17.5689 8.82048 17.7279 8.82048 17.8551C8.85163 17.8551 8.88279 17.8551 8.91395 17.8551C8.9451 17.8551 8.97626 17.8551 9.00742 17.8551C9.35015 17.7915 9.63056 17.6007 9.87982 17.3463C10.1914 17.0601 10.4718 16.7739 10.7522 16.4876C11.2507 16.0424 11.7181 15.5972 12.1855 15.1201Z" fill="white"/>
</svg>
