<svg width="30" height="30" viewBox="0 0 30 30" fill="none" xmlns="http://www.w3.org/2000/svg">
<path d="M7.90559 11.435L7.88054 11.4058C7.329 10.7621 7.14172 9.8831 7.38184 9.07071L7.38188 9.07057C7.62213 8.25815 8.25779 7.62243 9.0703 7.38217L9.0704 7.38214C9.88279 7.14202 10.7618 7.32931 11.4055 7.88084L11.4347 7.90588L11.462 7.9331L15 11.4712L18.5142 7.957C18.9658 7.4477 19.6062 7.14427 20.2874 7.11789L7.90559 11.435ZM7.90559 11.435L7.9328 11.4623M7.90559 11.435L7.9328 11.4623M7.9328 11.4623L11.4709 15.0003L7.95672 18.5145M7.9328 11.4623L7.95672 18.5145M25.4999 1H4.50006C3.57183 1 2.68159 1.36869 2.02509 2.02487C2.02505 2.02491 2.02502 2.02495 2.02498 2.02498C2.02495 2.02502 2.02491 2.02505 2.02487 2.02509C1.36869 2.68159 1 3.57183 1 4.50006V25.4999C1 26.4282 1.36869 27.3184 2.02487 27.9749C2.02495 27.975 2.02502 27.9751 2.02509 27.9751M25.4999 1V30H4.50006C3.30652 30 2.1619 29.5259 1.31788 28.6821L2.02509 27.9751M25.4999 1C26.4282 1 27.3184 1.36869 27.9749 2.02487M25.4999 1L27.9749 2.02487M2.02509 27.9751C2.68159 28.6313 3.57183 29 4.50006 29H25.4999C26.4282 29 27.3184 28.6313 27.9749 27.9751C27.9749 27.9751 27.975 27.9751 27.975 27.975L2.02509 27.9751ZM27.9749 2.02487C27.975 2.02495 27.9751 2.02502 27.9751 2.02509C28.6313 2.68159 29 3.57183 29 4.50006V25.4999C29 26.4282 28.6313 27.3184 27.9751 27.9749L4.50006 0H25.4999C26.6935 0 27.8381 0.474114 28.6821 1.31788L27.9749 2.02487ZM22.8823 20.2877C22.9096 20.9844 22.6444 21.6601 22.1519 22.1524C21.6598 22.6445 20.9845 22.9098 20.288 22.8827L22.8823 20.2877ZM22.8823 20.2877C22.8559 19.6065 22.5525 18.9661 22.0432 18.5145M22.8823 20.2877L22.0432 18.5145M22.0432 18.5145L18.5291 15.0003L22.0433 11.4861C22.5526 11.0345 22.856 10.394 22.8824 9.71285C22.8824 9.71265 22.8824 9.71245 22.8824 9.71224L22.0432 18.5145ZM7.95672 18.5145C7.44722 18.9662 7.14379 19.6069 7.11756 20.2883M7.95672 18.5145L9.71195 22.8827C9.01552 22.9098 8.34008 22.6446 7.84787 22.1523C7.3558 21.6602 7.09051 20.9848 7.11756 20.2883M7.11756 20.2883C7.11757 20.2881 7.11758 20.2879 7.11759 20.2877L8.11682 20.3268L7.11756 20.2883ZM15 18.5294L11.4858 22.0436C11.0342 22.5529 10.3938 22.8563 9.71254 22.8827L15 18.5294ZM15 18.5294L18.5141 22.0436C18.9657 22.5529 19.6062 22.8563 20.2874 22.8827L15 18.5294Z" stroke="white" stroke-width="2"/>
</svg>
