<svg width="41" height="30" viewBox="0 0 41 30" fill="none" xmlns="http://www.w3.org/2000/svg">
<path d="M40.3955 13.7876L33.1348 1.20766C32.5077 0.121272 31.1153 -0.25036 30.0293 0.376456L26.8347 2.21863C25.9082 2.75362 25.4799 3.86876 25.8076 4.88449L20.3709 5.02297C20.163 5.02802 19.9722 5.09773 19.8163 5.21256L17.301 6.91535L14.7856 5.08069C15.2872 4.01448 14.8866 2.7363 13.8649 2.14671L10.6703 0.304544C9.58457 -0.322248 8.19212 0.0493441 7.56474 1.13575L0.304753 13.7149C-0.322354 14.8016 0.0492375 16.1931 1.13596 16.8204L4.33052 18.6626C5.24628 19.1913 6.40518 19.0184 7.12632 18.2494L7.89601 19.0607C6.35344 21.2165 7.45155 23.1265 9.7486 23.7773C10.1489 25.2226 11.3965 25.9945 12.8573 25.9532C13.2283 27.2109 14.3475 28.1089 15.6588 28.1862C16.7354 30.0259 18.182 30.589 19.8173 29.3029C21.5144 30.3646 23.286 29.5742 24.2307 27.9698C25.4256 27.7761 26.1751 26.7547 26.5615 25.6819C27.6287 25.5557 28.6381 25.1301 29.0794 24.0747C31.0245 23.8147 32.3229 21.8555 31.8311 19.9499L33.3373 18.0235C33.6534 18.5005 34.125 18.8235 34.6451 18.9629C35.205 19.1131 35.8249 19.0494 36.3684 18.7355L39.563 16.8933C40.651 16.2653 41.0225 14.8738 40.3955 13.7877V13.7876ZM5.74778 16.8531C5.70393 16.9294 5.63107 16.9812 5.54968 17.0029C5.46704 17.025 5.37839 17.0178 5.30363 16.9755L5.30458 16.9736L2.11381 15.1314C1.96334 15.0447 1.90593 14.8393 1.9911 14.6873L9.25335 2.11302C9.34009 1.96255 9.54545 1.90545 9.6975 1.99031L12.8876 3.8341C13.0381 3.92084 13.0952 4.1262 13.0103 4.27825L5.74778 16.8531ZM10.1508 21.8637C9.36403 21.6189 8.89115 21.3047 9.31293 20.4716C9.50377 20.0944 10.6482 18.4026 10.9495 18.4042C11.8539 18.4073 11.7987 19.242 11.5015 19.8707C11.3378 20.0268 10.2076 21.6154 10.1507 21.8637H10.1508ZM13.1039 23.9702C12.5409 24.0728 11.8762 23.9671 11.6583 23.3611C11.4797 22.8636 12.8368 20.9896 13.7273 20.9041C15.395 20.7441 13.3645 23.5939 13.104 23.9702H13.1039ZM15.754 26.2377C15.1477 26.1938 14.7247 25.7134 14.6755 25.122C15.1982 24.3661 15.8048 23.2842 16.7855 23.2141C18.5448 23.0889 16.0247 25.9257 15.7541 26.2377H15.754ZM18.1404 28.0379C17.9568 28.0669 17.7214 27.8641 17.3981 27.3086C17.5899 27.079 18.4347 26.0862 18.5151 25.8588C18.541 25.786 19.2451 25.9967 19.293 26.1948C19.4009 26.6396 18.5413 27.9755 18.1404 28.0379H18.1404ZM21.2554 27.8177C21.6166 27.2105 21.2948 26.7853 21.2106 26.6789C21.5718 26.9938 21.9178 27.2366 22.2232 27.4215C21.9654 27.6969 21.6431 27.8909 21.2554 27.8177L21.2554 27.8177ZM28.6204 22.1365C26.865 21.499 25.5455 20.0258 24.4594 18.5634C23.6957 17.5332 22.1295 18.6947 22.8932 19.7246C24.0168 21.2381 25.336 22.6885 27.0315 23.5661C26.7773 23.7062 26.3527 23.7497 26.065 23.7705C24.7287 22.9557 23.7076 22.256 22.6345 21.1006C21.7604 20.1609 20.3317 21.4905 21.2059 22.4296C22.2831 23.5901 23.326 24.3674 24.6594 25.1986C24.5134 25.5487 24.2389 26.0437 23.8042 26.0487C23.4872 25.9351 22.3147 25.4222 21.2592 23.7554C20.7765 22.9889 19.6094 23.2453 19.4712 24.1235C19.3974 24.1049 19.3229 24.0895 19.2488 24.0768C19.687 22.1454 18.153 20.9722 16.2741 21.3129C16.3145 19.7785 15.1613 18.8549 13.6493 18.9539C13.5679 16.5748 10.2387 15.5171 9.00526 17.4042L8.19772 16.5111L13.8152 6.78183L15.5873 8.07486L14.6744 8.69314C14.504 8.80891 14.3813 8.96884 14.3126 9.14801L12.1628 14.7185C11.9376 15.3008 12.2732 15.8219 12.8211 16.0159C16.0302 17.1509 18.4635 16.0796 19.7506 12.9311L22.5376 12.5409C24.569 15.6831 26.4687 18.4722 29.9405 20.4372C30.1493 21.2659 29.379 22.3276 28.6203 22.1362L28.6204 22.1365ZM30.4926 18.5C27.5294 16.6768 25.8098 14.0112 23.8906 11.0366C23.66 10.6788 23.3386 10.4596 22.8872 10.5221L18.9387 11.075C18.5718 11.1145 18.2438 11.3605 18.1176 11.7324C17.4753 13.6116 16.4653 14.8365 14.366 14.4263L16.0221 10.1328L20.7027 6.96381L26.8574 6.80734L32.2847 16.208L30.4926 18.5ZM38.5867 15.2045L35.3965 17.0483C35.2445 17.1338 35.0391 17.0767 34.9524 16.9256L27.6905 4.35134C27.605 4.1993 27.6621 3.99394 27.8132 3.90719L31.0033 2.06309C31.1553 1.9776 31.3607 2.0347 31.4474 2.18579L38.7087 14.7601C38.7942 14.9124 38.7374 15.1175 38.5866 15.2045L38.5867 15.2045Z" fill="white"/>
</svg>
