<svg width="26" height="14" viewBox="0 0 26 14" fill="none" xmlns="http://www.w3.org/2000/svg">
<path d="M2.36543 0.668359C2.06543 0.668359 1.76543 0.668359 1.46543 0.668359C1.26543 0.668359 1.06543 0.768359 0.86543 0.768359C0.66543 0.868359 0.56543 1.06836 0.56543 1.26836C0.56543 1.36836 0.56543 1.36836 0.56543 1.36836C0.66543 1.66836 0.76543 1.86836 0.86543 2.16836C1.46543 3.36836 2.06543 4.56836 2.66543 5.76836C3.56543 7.26836 4.46543 8.76836 5.56543 10.1684C6.06543 10.7684 6.66543 11.3684 7.26543 11.9684C7.96543 12.4684 8.66543 12.9684 9.46543 13.3684C10.5654 13.8684 10.8654 13.7684 12.0654 13.6684C12.4654 13.6684 12.8654 13.6684 13.3654 13.6684C13.4654 13.6684 14.5654 13.6684 14.6654 13.6684C14.9654 13.5684 15.0654 13.8684 15.1654 13.5684C15.1654 13.4684 15.2654 13.2684 15.2654 13.1684C15.2654 12.8684 15.3654 12.4684 15.3654 12.1684C15.4654 11.8684 15.5654 11.5684 15.7654 11.2684C16.0654 10.8684 16.3654 10.8684 16.7654 11.0684C17.0654 11.1684 17.2654 11.3684 17.4654 11.6684C17.8654 12.1684 18.3654 12.5684 18.7654 13.0684C19.0654 13.3684 19.4654 13.5684 19.8654 13.7684C19.8654 13.8684 20.7654 13.7684 21.1654 13.7684C21.4654 13.7684 22.1654 13.7684 22.4654 13.7684C23.2654 13.7684 22.9654 13.7684 23.7654 13.7684C24.0654 13.7684 24.7654 13.7684 25.0654 13.7684C25.4654 13.5684 25.8654 13.4684 25.6654 13.0684C25.5654 12.8684 25.5654 12.7684 25.4654 12.5684C25.1654 12.0684 24.7654 11.5684 24.3654 11.1684C23.7654 10.5684 23.1654 10.0684 22.6654 9.46836C22.3654 9.26836 22.1654 8.96836 21.9654 8.66836C21.6654 8.36836 21.6654 7.96836 21.8654 7.66836C21.9654 7.56836 21.9654 7.36836 22.0654 7.26836C22.4654 6.66836 22.9654 6.16836 23.3654 5.56836C23.9654 4.76836 24.6654 3.96836 25.1654 3.06836C25.3654 2.66836 25.5654 2.26836 25.7654 1.86836C25.7654 1.76836 25.8654 1.56836 25.8654 1.46836C25.8654 1.16836 25.7654 0.968359 25.3654 0.868359C25.0654 0.768359 24.8654 0.768359 24.5654 0.768359C23.6654 0.768359 22.7654 0.768359 21.8654 0.768359C21.4654 0.768359 21.0654 0.768359 20.6654 0.768359C20.3654 0.768359 20.1654 0.868359 20.0654 1.06836C19.9654 1.16836 19.9654 1.26836 19.9654 1.36836C19.5654 2.46836 19.0654 3.56836 18.3654 4.56836C17.9654 5.26836 17.5654 5.86836 16.9654 6.46836C16.7654 6.66836 16.5654 6.86836 16.2654 6.96836C16.1654 7.06836 15.9654 6.96836 15.8654 6.86836C15.7654 6.76836 15.6654 6.66836 15.6654 6.56836C15.4654 6.26836 15.4654 5.96836 15.4654 5.66836C15.4654 5.16836 15.4654 4.76836 15.4654 4.26836C15.4654 3.86836 15.4654 3.36836 15.4654 2.96836C15.4654 2.76836 15.4654 2.56836 15.4654 2.46836C15.4654 2.06836 15.4654 1.56836 15.4654 1.16836C15.3654 0.668359 15.1654 0.368359 14.6654 0.268359C14.0654 0.0683594 13.5654 0.0683594 13.0654 0.0683594C12.3654 0.0683594 11.5654 0.0683594 10.8654 0.0683594C10.5654 0.0683594 10.1654 0.168359 9.86543 0.268359C9.56543 0.368359 8.46543 0.468359 8.26543 0.768359C8.16543 0.868359 9.06543 0.868359 9.06543 0.968359C9.06543 1.06836 9.06543 1.06836 9.16543 1.16836C9.26543 1.16836 8.16543 2.06836 8.36543 2.16836C8.76543 2.26836 10.1654 1.66836 10.3654 2.06836C10.4654 2.36836 10.4654 2.56836 10.5654 2.86836C10.5654 3.26836 10.6654 3.56836 10.6654 3.96836C10.6654 4.66836 10.6654 5.46836 10.5654 6.16836C10.5654 6.46836 10.4654 6.66836 10.2654 6.86836C9.96543 6.86836 9.86543 6.96836 9.66543 6.96836C9.56543 6.96836 9.36543 6.86836 9.26543 6.76836C8.96543 6.66836 8.76543 6.36836 8.56543 6.16836C7.96543 5.26836 7.36543 4.36836 6.86543 3.46836C6.56543 2.76836 6.26543 2.06836 5.86543 1.26836C5.66543 0.868359 5.36543 0.668359 4.86543 0.668359C4.06543 0.668359 3.26543 0.668359 2.36543 0.668359Z" fill="white"/>
</svg>
